<svg xmlns="http://www.w3.org/2000/svg" width="148.10001" height="61.2" viewBox="0 0 148.10001 61.2"><title>biblos-logo</title><path d="M53.6,27.6H52.1l-1.2-9.3-1.2,9.3H48.2l2-13.5H51a.62446.62446,0,0,1,.7.7Z" transform="translate(0 -0.6)" fill="#050505"/><path d="M61.7,27.6h-.6a.88145.88145,0,0,1-.9-.9L58.7,20v7.5H57.3V14.1H58c.8,0,.9.4,1,.8l1.4,7V14.1h1.4V27.6Z" transform="translate(0 -0.6)" fill="#050505"/><path d="M70.8,15.1a.71974.71974,0,0,1-.7.4H69a.31931.31931,0,0,0-.3.3V27.6h-1c-.3,0-.4-.2-.4-.3V15.5H65.4v-.9a.43016.43016,0,0,1,.4-.4h5.5Z" transform="translate(0 -0.6)" fill="#050505"/><path d="M75.9,14.1a.56243.56243,0,0,1,.6.5v13h-1c-.3,0-.4-.2-.4-.3V14.1Z" transform="translate(0 -0.6)" fill="#050505"/><path d="M85.3,27.6l-1.8-6v6H82.1v-13a.45232.45232,0,0,1,.4-.5h.9V19l1.7-4.9h1.4l-2.2,6.1,2.3,7.4Z" transform="translate(0 -0.6)" fill="#050505"/><path d="M93.5,27.6h-.7c-.7,0-.8-.8-.8-.9L90.1,14.2h1c.1,0,.3.1.4.5l1.3,8.5,1.4-9h1.4Z" transform="translate(0 -0.6)" fill="#050505"/><path d="M104.1,27.6h-1.5l-1.2-9.3-1.2,9.3H98.7l2-13.5h.7a.62446.62446,0,0,1,.7.7Z" transform="translate(0 -0.6)" fill="#050505"/><path d="M110.7,27.6V22.7c0-.7-.3-.9-.7-.9h-.7v5.8h-1.4V14.1h2.5a1.75238,1.75238,0,0,1,1.7,1.7V20s.1,1.1-.5,1.2c.5.3.5,1.3.5,1.3v5.2h-1.4Zm-.7-7.1c.4,0,.7-.2.7-.8V16.1a.63172.63172,0,0,0-.7-.7h-.7v5.1Z" transform="translate(0 -0.6)" fill="#050505"/><path d="M118.3,14.1a.56243.56243,0,0,1,.6.5v13h-1c-.3,0-.4-.2-.4-.3V14.1Z" transform="translate(0 -0.6)" fill="#050505"/><path d="M126.8,14.1a.56243.56243,0,0,1,.6.5V26a1.66635,1.66635,0,0,1-1.6,1.7h-.9a1.75238,1.75238,0,0,1-1.7-1.7v-.3c0-.4.2-.7.4-.7a3.36215,3.36215,0,0,1,1-.4v1.2a.7.7,0,1,0,1.4,0V14.1Z" transform="translate(0 -0.6)" fill="#050505"/><path d="M136.7,27.6h-1.5L134,18.3l-1.2,9.3h-1.5l2-13.5h.7a.62446.62446,0,0,1,.7.7Z" transform="translate(0 -0.6)" fill="#050505"/><path d="M144.9,15.1a.71974.71974,0,0,1-.7.4h-1.1a.3193.3193,0,0,0-.3.3V27.6h-1c-.3,0-.4-.2-.4-.3V15.5h-1.9v-.9a.43016.43016,0,0,1,.4-.4h5.5Z" transform="translate(0 -0.6)" fill="#050505"/><path d="M53.3,45.1v4a1.75238,1.75238,0,0,1-1.7,1.7H49.1V37.3h2.5A1.75238,1.75238,0,0,1,53.3,39v4a1.22565,1.22565,0,0,1-.8,1.1A1.05522,1.05522,0,0,1,53.3,45.1Zm-1.4-5.7a.63172.63172,0,0,0-.7-.7h-.7v4.7h.7c.4,0,.7-.2.7-.8Zm0,6c0-.6-.3-.8-.7-.8h-.7v4.7h.7a.63172.63172,0,0,0,.7-.7Z" transform="translate(0 -0.6)" fill="#050505"/><path d="M59.5,37.3a.56243.56243,0,0,1,.6.5v13h-1c-.3,0-.4-.2-.4-.3V37.3Z" transform="translate(0 -0.6)" fill="#050505"/><path d="M69.6,45.1v4a1.75238,1.75238,0,0,1-1.7,1.7H65.4V37.3h2.5A1.75238,1.75238,0,0,1,69.6,39v4a1.22565,1.22565,0,0,1-.8,1.1A1.05522,1.05522,0,0,1,69.6,45.1Zm-1.4-5.7a.63172.63172,0,0,0-.7-.7h-.7v4.7h.7c.4,0,.7-.2.7-.8Zm0,6c0-.6-.3-.8-.7-.8h-.7v4.7h.7a.63172.63172,0,0,0,.7-.7Z" transform="translate(0 -0.6)" fill="#050505"/><path d="M79.3,49.4a3.37928,3.37928,0,0,0-.4,1,.71975.71975,0,0,1-.7.4H74.9V37.3h1a.43016.43016,0,0,1,.4.4V49.4Z" transform="translate(0 -0.6)" fill="#050505"/><path d="M85.2,37.1a1.75237,1.75237,0,0,1,1.7,1.7V49.1a1.68547,1.68547,0,0,1-1.7,1.7h-1a1.75238,1.75238,0,0,1-1.7-1.7V38.9a1.75238,1.75238,0,0,1,1.7-1.7h1Zm-.4,12.6a.71326.71326,0,0,0,.7-.8V39.1a.77283.77283,0,0,0-.7-.8h-.2a.71325.71325,0,0,0-.7.8v9.8a.84854.84854,0,0,0,.7.8Z" transform="translate(0 -0.6)" fill="#050505"/><path d="M94.5,40.7V39.1a.77283.77283,0,0,0-.7-.8.71325.71325,0,0,0-.7.8v1.3a4.37326,4.37326,0,0,0,.6,1.8l1.6,3.1a3.73936,3.73936,0,0,1,.6,2.1v1.7a1.75238,1.75238,0,0,1-1.7,1.7h-.9a1.82756,1.82756,0,0,1-1.7-1.7V47.7a.89387.89387,0,0,1,.4-.8c.1,0,.7-.3,1-.4V49a.68353.68353,0,0,0,.7.7.71325.71325,0,0,0,.7-.8V47.4a4.37321,4.37321,0,0,0-.6-1.8l-1.6-3.1a3.73937,3.73937,0,0,1-.6-2.1V39a1.84446,1.84446,0,0,1,1.7-1.8h.9A1.84446,1.84446,0,0,1,95.9,39v.5a.89387.89387,0,0,1-.4.8A3.379,3.379,0,0,0,94.5,40.7Z" transform="translate(0 -0.6)" fill="#050505"/><rect x="1.1" y="17.4" width="7.4" height="33.1" fill="#050505"/><polyline points="10.1 24.5 13.3 23.7 19.3 49.8 16 50.5" fill="#050505" fill-rule="evenodd"/><rect x="20.9" y="13.7" width="5.7" height="36.8" fill="#050505"/><rect x="28.2" y="22.5" width="5.7" height="28" fill="#050505"/><rect x="36.1" y="9.6" width="3.9" height="40.9" fill="#050505"/><rect y="60.1" width="148.10001" height="1.1" fill="#050505"/><rect width="148.10001" height="1.1" fill="#050505"/><path d="M0,1.1H148v.6H0Z" transform="translate(0 -0.6)" fill="#050505"/></svg>