<svg xmlns="http://www.w3.org/2000/svg" width="300" height="160" viewBox="0 0 300 160"><title>biblos-logo2</title><rect width="300" height="160" fill="#fff"/><path d="M119.92646,74.70588h-2.20588l-1.76471-13.67647-1.7647,13.67647h-2.20589l2.94118-19.85294h1.17648a.91832.91832,0,0,1,1.02941,1.02941Z" fill="#050505"/><path d="M131.83823,74.70588h-.88235a1.29625,1.29625,0,0,1-1.32353-1.32353l-2.20588-9.85294V74.55882h-2.05883V54.85294h1.02941c1.17647,0,1.32354.58824,1.47059,1.17647l2.05883,10.29412V54.85294h2.05882V74.70588Z" fill="#050505"/><path d="M145.22059,56.32353a1.05845,1.05845,0,0,1-1.02941.58823h-1.61764a.46956.46956,0,0,0-.44118.44118V74.70588h-1.47059c-.44118,0-.58824-.29412-.58824-.44117V56.91176h-2.79412V55.58824A.63258.63258,0,0,1,137.86765,55h8.08823Z" fill="#050505"/><path d="M152.72059,54.85294a.8271.8271,0,0,1,.88235.7353V74.70588h-1.47059c-.44118,0-.58824-.29412-.58824-.44117V54.85294Z" fill="#050505"/><path d="M166.54412,74.70588l-2.64707-8.82353v8.82353h-2.05882V55.58824a.66518.66518,0,0,1,.58824-.7353H163.75v7.20588l2.5-7.20588h2.05883l-3.23529,8.97059,3.38236,10.88235Z" fill="#050505"/><path d="M178.60294,74.70588h-1.02941c-1.02941,0-1.17648-1.17647-1.17648-1.32353L173.60293,55h1.47059c.14706,0,.44118.14706.58824.7353l1.91177,12.5L179.63236,55h2.05882Z" fill="#050505"/><path d="M194.19117,74.70588h-2.20588l-1.7647-13.67647-1.7647,13.67647H186.25l2.94118-19.85294h1.02941a.91831.91831,0,0,1,1.0294,1.02941Z" fill="#050505"/><path d="M203.89705,74.70588V67.5c0-1.02941-.44118-1.32353-1.02941-1.32353h-1.0294v8.52942h-2.05883V54.85294h3.67647a2.577,2.577,0,0,1,2.5,2.5v6.17647s.147,1.61765-.7353,1.76471c.7353.44117.7353,1.91176.7353,1.91176v7.64706h-2.05883Zm-1.02941-10.44117c.58824,0,1.02941-.29412,1.02941-1.17647V57.79412a.929.929,0,0,0-1.02941-1.02941h-1.0294v7.5Z" fill="#050505"/><path d="M215.07353,54.85294a.82709.82709,0,0,1,.88235.7353V74.70588h-1.47059c-.44118,0-.58823-.29412-.58823-.44117V54.85294Z" fill="#050505"/><path d="M227.57353,54.85294a.82709.82709,0,0,1,.88235.7353v16.7647a2.45051,2.45051,0,0,1-2.35294,2.5h-1.32353a2.577,2.577,0,0,1-2.5-2.5v-.44117c0-.58824.29412-1.02942.58824-1.02942a4.94468,4.94468,0,0,1,1.47059-.58823v1.76471a1.02941,1.02941,0,0,0,2.05882,0V54.85294Z" fill="#050505"/><path d="M242.13235,74.70588h-2.20589l-1.7647-13.67647-1.7647,13.67647h-2.20588l2.94117-19.85294h1.02941a.91832.91832,0,0,1,1.02941,1.02941Z" fill="#050505"/><path d="M254.19116,56.32353a1.05845,1.05845,0,0,1-1.0294.58823H251.5441a.46957.46957,0,0,0-.44118.44118V74.70588h-1.47059c-.44118,0-.58822-.29412-.58822-.44117V56.91176H246.25V55.58824A.63258.63258,0,0,1,246.83822,55h8.08824Z" fill="#050505"/><path d="M119.48529,100.44118v5.88235a2.577,2.577,0,0,1-2.5,2.5h-3.67647V88.97059h3.67647a2.577,2.577,0,0,1,2.5,2.5v5.88235a1.80243,1.80243,0,0,1-1.17647,1.61765A1.5518,1.5518,0,0,1,119.48529,100.44118Zm-2.05882-8.38235a.929.929,0,0,0-1.02941-1.02942h-1.02942v6.91177h1.02942c.58823,0,1.02941-.29412,1.02941-1.17647Zm0,8.82353c0-.88235-.44118-1.17647-1.02941-1.17647h-1.02942v6.91176h1.02942a.929.929,0,0,0,1.02941-1.02941Z" fill="#050505"/><path d="M128.60294,88.97059a.82709.82709,0,0,1,.88235.73529v19.11765H128.0147c-.44118,0-.58824-.29412-.58824-.44118V88.97059Z" fill="#050505"/><path d="M143.45588,100.44118v5.88235a2.577,2.577,0,0,1-2.5,2.5h-3.67647V88.97059h3.67647a2.577,2.577,0,0,1,2.5,2.5v5.88235a1.80243,1.80243,0,0,1-1.17648,1.61765A1.5518,1.5518,0,0,1,143.45588,100.44118Zm-2.05883-8.38235a.929.929,0,0,0-1.02941-1.02942h-1.0294v6.91177h1.0294c.58824,0,1.02941-.29412,1.02941-1.17647Zm0,8.82353c0-.88235-.44118-1.17647-1.02941-1.17647h-1.0294v6.91176h1.0294a.929.929,0,0,0,1.02941-1.02941Z" fill="#050505"/><path d="M157.72059,106.76471a4.9693,4.9693,0,0,0-.58824,1.47059,1.05845,1.05845,0,0,1-1.02941.58823H151.25V88.97059h1.47059a.63259.63259,0,0,1,.58823.58824v17.20588Z" fill="#050505"/><path d="M166.39705,88.67647a2.577,2.577,0,0,1,2.5,2.5v15.14706a2.47865,2.47865,0,0,1-2.5,2.5h-1.47059a2.577,2.577,0,0,1-2.5-2.5v-15a2.577,2.577,0,0,1,2.5-2.5h1.47059Zm-.58823,18.52941a1.0489,1.0489,0,0,0,1.02941-1.17647V91.61765a1.13651,1.13651,0,0,0-1.02941-1.17647h-.29411a1.04891,1.04891,0,0,0-1.02941,1.17647v14.41176a1.24785,1.24785,0,0,0,1.02941,1.17647Z" fill="#050505"/><path d="M180.07353,93.97059V91.61765a1.13652,1.13652,0,0,0-1.02941-1.17647,1.04891,1.04891,0,0,0-1.02941,1.17647v1.91176a6.43122,6.43122,0,0,0,.88235,2.64706l2.35294,4.55882a5.49907,5.49907,0,0,1,.88235,3.08824v2.5a2.577,2.577,0,0,1-2.5,2.5h-1.32354a2.6876,2.6876,0,0,1-2.5-2.5V104.2647a1.31451,1.31451,0,0,1,.58824-1.17647c.147,0,1.0294-.44117,1.47058-.58823v3.67647a1.0052,1.0052,0,0,0,1.02941,1.02941,1.0489,1.0489,0,0,0,1.02941-1.17647v-2.20588a6.43122,6.43122,0,0,0-.88235-2.64706l-2.35294-4.55882a5.499,5.499,0,0,1-.88235-3.08823V91.47059a2.71243,2.71243,0,0,1,2.5-2.64705h1.32354a2.71242,2.71242,0,0,1,2.5,2.64705v.7353a1.31451,1.31451,0,0,1-.58824,1.17647A4.96882,4.96882,0,0,0,180.07353,93.97059Z" fill="#050505"/><rect x="42.72058" y="60.58824" width="10.88235" height="48.67647" fill="#050505"/><polyline points="55.956 71.029 60.662 69.853 69.485 108.235 64.632 109.265" fill="#050505" fill-rule="evenodd"/><rect x="71.83823" y="55.14706" width="8.38235" height="54.11765" fill="#050505"/><rect x="82.57353" y="68.08824" width="8.38235" height="41.17647" fill="#050505"/><rect x="94.19117" y="49.11765" width="5.7353" height="60.14706" fill="#050505"/><rect x="41.10294" y="123.38236" width="217.79413" height="1.61764" fill="#050505"/><rect x="41.10294" y="35" width="217.79413" height="1.61765" fill="#050505"/><path d="M41.10294,35.73529H258.75v.88236H41.10294Z" fill="#050505"/></svg>