<svg xmlns="http://www.w3.org/2000/svg" width="228.00977" height="37.45898" viewBox="0 0 228.00977 37.45898"><title>logo-aukcije4a4</title><path d="M2.4541,27.36914A1.60134,1.60134,0,0,1,.7666,26.35645c1.43718-.1292,2.01168-1.67274,3.34961-2.0752l.10254.35449c-1.09807.31744-1.815,1.65205-2.88965,1.97364a1.27557,1.27557,0,0,0,1.07422.40527Z" transform="translate(-0.7666 -2.46387)" fill="#ccc"/><path d="M5.24121,25.64746c-1.66225-.59505-2.69377,1.64448-3.52854,2.55641,1.22587-.42733,3.66862.044,3.9636-1.77125h.35791C5.90574,27.97241,4.05945,28.347,2.8125,28.28013c-.50912.21282-1.61136.66327-1.47073-.35452,1.18965-1.02189,2.091-3.34844,4.05325-2.58186Z" transform="translate(-0.7666 -2.46387)" fill="#ccc"/><path d="M3.09375,28.2041a1.24711,1.24711,0,0,0-.1792,1.13867c.7864-.7922,2.30114-.71369,3.145-1.49316l.25586.25293c-.93588.87043-2.69149.72983-3.45215,1.79687A1.51915,1.51915,0,0,1,2.78662,28.002Z" transform="translate(-0.7666 -2.46387)" fill="#ccc"/><path d="M6.90332,25.21777c1.54123,2.1015.31747,1.92074-.40869,3.61914-.94681-.71025.04234-1.60579-.48584-2.27832a1.30628,1.30628,0,0,1-1.20215-.15136,1.25929,1.25929,0,0,1,.48584-1.08887c-.47523-.787-1.54217-.38229-1.84082-1.56934C5.06049,23.83043,6.11758,23.4,6.90332,25.21777Z" transform="translate(-0.7666 -2.46387)" fill="#ccc"/><path d="M9.40967,19.624c-6.41047-.6496-7.55462-11.01043-.94629-12.377l.102.10156A11.52781,11.52781,0,0,0,9.563,19.3457Z" transform="translate(-0.7666 -2.46387)" fill="#ccc"/><path d="M6.59668,25.41992c-.67548-1.296-1.0922-1.50886-2.40381-1.26562.51959.57052,1.4479.29481,1.50879,1.34179a.85246.85246,0,0,0-.53711.708.87693.87693,0,0,0,.86963-.07519c.88453.44747.27391,1.15932.40918,1.89746C7.48,27.13893,7.4777,26.66654,6.59668,25.41992Z" transform="translate(-0.7666 -2.46387)" fill="#ccc"/><path d="M9.12793,19.24414A11.70336,11.70336,0,0,1,8.00293,7.728C2.44285,9.49122,3.6317,18.275,9.12793,19.24414Z" transform="translate(-0.7666 -2.46387)" fill="#ccc"/><path d="M9.33252,19.59863A7.43838,7.43838,0,0,1,8.10547,7.374l.28125.17676a7.13234,7.13234,0,0,0,1.125,11.74414Z" transform="translate(-0.7666 -2.46387)" fill="#ccc"/><path d="M6.16211,24.38184c1.1541-.87617,2.41921,1.32708,1.07373,1.89843l-.15332-.30371c.88429-.35607.01309-1.88463-.71582-1.291Z" transform="translate(-0.7666 -2.46387)" fill="#ccc"/><path d="M15.77637,28.91309c-1.5476-3.12976-4.99783-5.52059-8.33594-3.82227l-.15332-.30371c3.49688-1.791,7.16622.67424,8.79639,3.97363Z" transform="translate(-0.7666 -2.46387)" fill="#ccc"/><path d="M9.25586,36.20215c2.55639,3.11306,7.788.37637,7.44067-3.49331-.1109-5.94168-6.435-9.32031-8.07966-14.71771C4.38078,8.839,16.90332,2.05739,23.03857,9.24658l-.28125.20264C16.81751,2.61891,4.87682,9.09908,8.9627,17.89065c1.69955,5.41894,8.03352,8.81138,8.09259,14.81828.34018,4.19933-5.33881,7.102-8.10607,3.69537Z" transform="translate(-0.7666 -2.46387)" fill="#ccc"/><path d="M11.09717,17.87744c-1.62043-.38928-1.31379-1.54175-1.73877-2.75879a4.71746,4.71746,0,0,1,2.14795,1.67041,3.69061,3.69061,0,0,1,2.68457.12647C13.15684,17.59634,12.47069,18.52028,11.09717,17.87744Z" transform="translate(-0.7666 -2.46387)" fill="#ccc"/><path d="M11.19922,17.54834a1.71259,1.71259,0,0,0,2.17383-.53125,4.5162,4.5162,0,0,0-2.02051.17725,5.59522,5.59522,0,0,0-1.40625-1.41748A1.54032,1.54032,0,0,0,11.19922,17.54834Z" transform="translate(-0.7666 -2.46387)" fill="#ccc"/><path d="M9.97217,15.67529c.1045-1.20658,1.35329-1.58968,1.25293-2.85986,1.65625.66576,1.30464,2.26381.99707,4.0498l-.35791-.05078c.22944-1.38389.58178-2.65351-.33252-3.46728-.08551.96952-1.14193,1.39731-1.20166,2.3789Z" transform="translate(-0.7666 -2.46387)" fill="#ccc"/><path d="M11.96631,17.95361c-.27789,1.20026-2.18973.57521-1.55957-.55713l.30664.15186c-.36.64431.77638,1.05328.895.30371Z" transform="translate(-0.7666 -2.46387)" fill="#ccc"/><path d="M11.12256,22.50879A4.41816,4.41816,0,0,1,10.79,18.25732l.33252.07569a4.14663,4.14663,0,0,0,.25586,3.94824Z" transform="translate(-0.7666 -2.46387)" fill="#ccc"/><path d="M10.4834,8.23438c2.08872-2.48113,6.07508.00844,4.65381,2.88525h-.12793A4.74831,4.74831,0,0,0,10.63672,8.4873Z" transform="translate(-0.7666 -2.46387)" fill="#ccc"/><path d="M11.25049,8.209A4.5644,4.5644,0,0,1,14.728,10.05664,2.80419,2.80419,0,0,0,11.25049,8.209Z" transform="translate(-0.7666 -2.46387)" fill="#ccc"/><path d="M12.29883,31.06445c5.255.499,3.802,7.787-.63916,6.63086L11.6084,37.543c2.37465-1.59251,2.487-4.13857.63916-6.35254Z" transform="translate(-0.7666 -2.46387)" fill="#ccc"/><path d="M12.75928,31.2666c3.26648,1.52072,2.50252,6.38423-1.04834,6.55567v-.32911a3.09258,3.09258,0,0,0,.84375-5.94824Z" transform="translate(-0.7666 -2.46387)" fill="#ccc"/><path d="M11.7876,7.77881a3.11394,3.11394,0,0,1,3.27295,2.15137A2.31244,2.31244,0,0,0,11.7876,7.77881Z" transform="translate(-0.7666 -2.46387)" fill="#ccc"/><path d="M13.0918,16.71338c.5094-.78971.07908-1.80568.63916-2.58154a1.48068,1.48068,0,0,0-1.32959.65771l-.25586-.25293a1.68451,1.68451,0,0,1,2.14795-.55713c-.90786.8217-.22121,2.00569-.895,2.936Z" transform="translate(-0.7666 -2.46387)" fill="#ccc"/><path d="M13.06592,31.69727c1.29746,2.06354,1.09049,4.3121-.81836,5.7705C15.518,37.8463,16.79123,32.4899,13.06592,31.69727Z" transform="translate(-0.7666 -2.46387)" fill="#ccc"/><path d="M12.88721,13.57471a.557.557,0,0,1,0-1.11377A.557.557,0,0,1,12.88721,13.57471Z" transform="translate(-0.7666 -2.46387)" fill="#ccc"/><path d="M12.88721,13.22021a.20251.20251,0,0,0,0-.40478A.20251.20251,0,0,0,12.88721,13.22021Z" transform="translate(-0.7666 -2.46387)" fill="#ccc"/><path d="M13.731,6.76611a2.9056,2.9056,0,0,0,.48584-2.96093l.10205-.10157A1.56076,1.56076,0,1,1,13.731,6.76611Z" transform="translate(-0.7666 -2.46387)" fill="#ccc"/><path d="M14.34473,6.4624a1.21853,1.21853,0,0,0,.3833-2.227A3.089,3.089,0,0,1,14.34473,6.4624Z" transform="translate(-0.7666 -2.46387)" fill="#ccc"/><path d="M16.36475,29.74805a1.56362,1.56362,0,1,1,1.96875-2.42969v.15137C17.0963,28.00606,16.89525,28.48039,16.36475,29.74805Z" transform="translate(-0.7666 -2.46387)" fill="#ccc"/><path d="M16.23682,29.08984a3.233,3.233,0,0,1,1.48291-1.7207A1.2286,1.2286,0,0,0,16.23682,29.08984Z" transform="translate(-0.7666 -2.46387)" fill="#ccc"/><path d="M16.23682,35.36719a1.57263,1.57263,0,1,1,3.145,0l-.12793.07519A3.08923,3.08923,0,0,0,16.23682,35.36719Z" transform="translate(-0.7666 -2.46387)" fill="#ccc"/><path d="M16.646,34.86035a3.22243,3.22243,0,0,1,2.25.02539A1.207,1.207,0,0,0,16.646,34.86035Z" transform="translate(-0.7666 -2.46387)" fill="#ccc"/><path d="M17.5918,6.51318a1.57226,1.57226,0,1,1,.58838,3.08789l-.10254-.12646C18.47685,8.20143,18.25771,7.70608,17.5918,6.51318Z" transform="translate(-0.7666 -2.46387)" fill="#ccc"/><path d="M18.20557,6.86768a2.85167,2.85167,0,0,1,.35791,2.20166A1.1978,1.1978,0,0,0,18.20557,6.86768Z" transform="translate(-0.7666 -2.46387)" fill="#ccc"/><path d="M20.22559,7.42432c1.17606-.67953,1.61326-1.0321,1.89257-2.32862l.15332-.05029A1.56952,1.56952,0,1,1,20.22559,7.42432Z" transform="translate(-0.7666 -2.46387)" fill="#ccc"/><path d="M20.89062,7.44971a1.22733,1.22733,0,0,0,1.45752-1.74659A3.17617,3.17617,0,0,1,20.89062,7.44971Z" transform="translate(-0.7666 -2.46387)" fill="#ccc"/><path d="M23.24316,9.981c2.18443-1.5906,2.2457-.40786,4.06543.43017-.78427,1.04407-1.74248-.05475-2.58252.53125a1.48806,1.48806,0,0,1-.15332,1.291,1.4954,1.4954,0,0,1-1.22754-.53174c-.93863.44335-.48778,1.672-1.76416,1.99951C21.65791,11.856,21.05446,10.84058,23.24316,9.981Z" transform="translate(-0.7666 -2.46387)" fill="#ccc"/><path d="M23.44775,10.28467c-1.57146.77334-1.7915,1.1944-1.43213,2.7334.58429-.64729.35738-1.59535,1.48292-1.72119a1.019,1.019,0,0,0,.86962.582.9995.9995,0,0,0-.07666-1.01221c.634-.91627,1.36337-.19449,2.22461-.37988C25.39988,9.36939,24.91327,9.27786,23.44775,10.28467Z" transform="translate(-0.7666 -2.46387)" fill="#ccc"/><path d="M22.32227,10.74023c-.89071-1.23483,1.45185-2.6019,2.07128-1.18994l-.30664.20264c-.41489-1.01743-2.1324-.083-1.45752.83545Z" transform="translate(-0.7666 -2.46387)" fill="#ccc"/><path d="M25.62109,14.84033A1.77661,1.77661,0,0,1,24.54688,16.688c-.15972-1.49566-1.98148-2.26885-2.35206-3.64453l.332-.10157c.384,1.185,1.87446,2.01106,2.25048,3.189a1.41857,1.41857,0,0,0,.48584-1.23975Z" transform="translate(-0.7666 -2.46387)" fill="#ccc"/><path d="M23.70312,11.75244c-.614,1.91015,1.79746,3.01189,2.88944,3.92309-.31565-1.39148-.0144-4.01343-1.99442-4.37865l.05127-.3545c1.676.18274,2.05249,2.15852,2.00715,3.53078.06369.43167.727,1.17859.08951,1.50584-.61474.4068-1.015-.588-1.291-.8604-1.26525-.591-2.7078-1.9982-2.05861-3.518Z" transform="translate(-0.7666 -2.46387)" fill="#ccc"/><path d="M26.5415,14.15674a1.56031,1.56031,0,0,0,1.32959.20264c-.87125-.93073-.83646-2.58834-1.6875-3.49268l.25586-.25342c1.04442,1.027.80434,2.94607,2.04541,3.82227a1.85866,1.85866,0,0,1-2.148.0249Z" transform="translate(-0.7666 -2.46387)" fill="#ccc"/><path d="M35.43994,29.39355c-.93428-4.46507-3.46684-7.13783-7.978-7.87109l.02539-.15234c4.74028-3.53772,11.33965,3.12193,8.18262,7.94726Z" transform="translate(-0.7666 -2.46387)" fill="#ccc"/><path d="M27.71777,21.24414a6.74668,6.74668,0,0,1,8.08008,7.97266l-.33252-.02539a6.50274,6.50274,0,0,0-7.69678-7.669Z" transform="translate(-0.7666 -2.46387)" fill="#ccc"/><path d="M35.61914,28.96289c2.17551-4.46964-2.93587-10.07743-7.49219-7.64355A8.95882,8.95882,0,0,1,35.61914,28.96289Z" transform="translate(-0.7666 -2.46387)" fill="#ccc"/><path d="M31.70654,15.59961c3.28878-1.00573,1.67635-5.76028-.51123-2.68311H31.042c-2.19192-3.07919-3.79612,1.68174-.51172,2.68311l-.15332.30371c-3.26512-.96972-2.42124-6.145.7417-3.64453,3.16506-2.50235,4.00421,2.67822.74121,3.64453Z" transform="translate(-0.7666 -2.46387)" fill="#ccc"/><path d="M30.88818,16.46c-.86787.70654-2.35893-.73109-1.86621-1.67041l.30664.15186c-.30139.6075.77119,1.67281,1.355,1.26562Z" transform="translate(-0.7666 -2.46387)" fill="#ccc"/><path d="M32.32031,8.74072c-.3576,1.95091-3.5636,1.56148-3.145-.45556h.12793A3.01176,3.01176,0,0,0,32.32031,8.74072Z" transform="translate(-0.7666 -2.46387)" fill="#ccc"/><path d="M31.70654,9.24658a2.99649,2.99649,0,0,1-2.19873-.40478A1.29541,1.29541,0,0,0,31.70654,9.24658Z" transform="translate(-0.7666 -2.46387)" fill="#ccc"/><path d="M31.11865,16.58691c-1.46638-.15467-.76154-2.30639,0-2.88574C31.88015,14.2793,32.5847,16.43249,31.11865,16.58691Z" transform="translate(-0.7666 -2.46387)" fill="#ccc"/><path d="M31.11865,16.23242c.91242-.14375.393-1.56212,0-2.0249C30.7249,14.66834,30.206,16.09011,31.11865,16.23242Z" transform="translate(-0.7666 -2.46387)" fill="#ccc"/><path d="M46.97217,11.37256C45.76432,3.26012,31.13766,3.96184,31.29736,12.436h-.35791c-.1827-8.913,15.18482-9.65712,16.39063-1.08838Z" transform="translate(-0.7666 -2.46387)" fill="#ccc"/><path d="M31.55322,16.207c.58393.40712,1.65636-.658,1.355-1.26562l.30713-.15186c.49242.93969-.99864,2.37676-1.8667,1.67041Z" transform="translate(-0.7666 -2.46387)" fill="#ccc"/><path d="M36.30908,5.80469c-1.16542,1.51366-3.85547-.49737-2.45459-1.94922l.10254.05078A3.0492,3.0492,0,0,0,36.30908,5.80469Z" transform="translate(-0.7666 -2.46387)" fill="#ccc"/><path d="M36.84619,34.75977a2.92944,2.92944,0,0,0-3.01709.45507h-.12793C33.36136,33.1818,36.45694,32.83161,36.84619,34.75977Z" transform="translate(-0.7666 -2.46387)" fill="#ccc"/><path d="M35.56787,5.93115a3.11419,3.11419,0,0,1-1.71338-1.44287A1.31867,1.31867,0,0,0,35.56787,5.93115Z" transform="translate(-0.7666 -2.46387)" fill="#ccc"/><path d="M36.23242,34.25293a1.31153,1.31153,0,0,0-2.19873.40527A3.02816,3.02816,0,0,1,36.23242,34.25293Z" transform="translate(-0.7666 -2.46387)" fill="#ccc"/><path d="M47.02344,15.70068C45.76829,21.604,39.15259,23.628,36.21939,28.25463a5.695,5.695,0,0,0,5.51108,8.25123v.35449a6.04107,6.04107,0,0,1-5.82989-8.758c2.88718-4.72307,9.66069-6.66641,10.81573-12.65457Z" transform="translate(-0.7666 -2.46387)" fill="#ccc"/><path d="M39.27539,10.917c3.28952-1.00534,1.67541-5.76091-.51123-2.68261h-.15332C36.41986,5.15407,34.814,9.916,38.09912,10.917l-.15332.30371c-3.26523-.9688-2.42125-6.1449.7417-3.64453,3.16507-2.50225,4.00431,2.67914.74121,3.64453Z" transform="translate(-0.7666 -2.46387)" fill="#ccc"/><path d="M38.457,11.77783c-.86811.70533-2.35819-.73075-1.8667-1.67041l.30713.15186c-.30134.60749.77147,1.67228,1.355,1.26513Z" transform="translate(-0.7666 -2.46387)" fill="#ccc"/><path d="M38.6875,11.9043c-1.46669-.15434-.76128-2.30634,0-2.88526C39.44873,9.59674,40.15386,11.75022,38.6875,11.9043Z" transform="translate(-0.7666 -2.46387)" fill="#ccc"/><path d="M38.6875,11.5498c.91227-.143.39327-1.56211,0-2.02441C38.29351,9.98572,37.775,11.40824,38.6875,11.5498Z" transform="translate(-0.7666 -2.46387)" fill="#ccc"/><path d="M41.37207,36.80957c-3.10128.35117-4.315-4.06867-1.45752-5.26465l.07666.10156c-.41341,2.04307.17052,3.31664,1.45752,4.88477Z" transform="translate(-0.7666 -2.46387)" fill="#ccc"/><path d="M38.5083,7.60156C38.088,3.19744,43.775,2.16841,44.18506,6.71582l-.35791.05029c-.39577-4.15477-5.347-3.09657-4.96094.86084Z" transform="translate(-0.7666 -2.46387)" fill="#ccc"/><path d="M41.06543,36.48047A4.9476,4.9476,0,0,1,39.55664,32.127,2.44221,2.44221,0,0,0,41.06543,36.48047Z" transform="translate(-0.7666 -2.46387)" fill="#ccc"/><path d="M41.29541,36.835a3.22263,3.22263,0,0,1-1.6875-5.0625l.23.20313a2.90174,2.90174,0,0,0,1.53418,4.50488Z" transform="translate(-0.7666 -2.46387)" fill="#ccc"/><path d="M39.12207,11.52441c.58365.40709,1.6563-.65748,1.355-1.26513l.30713-.15186c.49228.9399-.99863,2.37556-1.8667,1.67041Z" transform="translate(-0.7666 -2.46387)" fill="#ccc"/><path d="M47.228,23.34473c.3863-3.95977-4.56736-5.01411-4.96094-.86035l-.35791-.05079c.40962-4.54976,6.09688-3.5168,5.67676.88575Z" transform="translate(-0.7666 -2.46387)" fill="#ccc"/><path d="M47.99512,26.63477c3.2891-1.00651,1.675-5.76064-.51172-2.68262h-.15332c-2.19028-3.08056-3.79737,1.68165-.51123,2.68262l-.15332.30371c-3.26581-.9691-2.42122-6.14523.74121-3.64453,3.1649-2.50216,4.00425,2.67829.7417,3.64453Z" transform="translate(-0.7666 -2.46387)" fill="#ccc"/><path d="M47.17676,27.49512c-.86825.70575-2.35871-.73019-1.8667-1.66992l.30664.15136c-.30022.60786.77128,1.67335,1.35547,1.26563Z" transform="translate(-0.7666 -2.46387)" fill="#ccc"/><path d="M48.37842,11.95508c-.09427-1.89312-.70563-3.62592-2.63379-3.59424l-.102-.35449c2.17793-.09939,3.01537,1.78033,3.09375,3.92334Z" transform="translate(-0.7666 -2.46387)" fill="#ccc"/><path d="M49.14551,15.24512c3.28969-1.00543,1.67522-5.761-.51123-2.68262H48.481c-2.19067-3.08038-3.797,1.68167-.51172,2.68262l-.15332.30371c-3.26489-.96957-2.4213-6.14509.7417-3.64453,3.16529-2.50223,4.00377,2.67821.7417,3.64453Z" transform="translate(-0.7666 -2.46387)" fill="#ccc"/><path d="M48.32764,16.106c-.86838.7054-2.35926-.73084-1.8667-1.67041l.30664.15185c-.30077.60783.77128,1.67224,1.35547,1.26514Z" transform="translate(-0.7666 -2.46387)" fill="#ccc"/><path d="M47.40674,27.62207c-1.46663-.15489-.76121-2.30651,0-2.88574C48.16766,25.314,48.87349,27.46864,47.40674,27.62207Z" transform="translate(-0.7666 -2.46387)" fill="#ccc"/><path d="M47.40674,27.26758c.91187-.143.39437-1.56238,0-2.02442C47.0133,25.70386,46.49442,27.12565,47.40674,27.26758Z" transform="translate(-0.7666 -2.46387)" fill="#ccc"/><path d="M47.8418,27.24219c.58311.40776,1.65612-.65766,1.355-1.26563l.30664-.15136c.49266.93926-.99918,2.37595-1.86621,1.66992Z" transform="translate(-0.7666 -2.46387)" fill="#ccc"/><path d="M48.55762,16.23242c-1.46625-.15467-.76153-2.30673,0-2.88525C49.319,13.92441,50.0237,16.07814,48.55762,16.23242Z" transform="translate(-0.7666 -2.46387)" fill="#ccc"/><path d="M48.55762,15.87793c.91253-.14357.39295-1.56216,0-2.0249C48.16412,14.31388,47.64493,15.7356,48.55762,15.87793Z" transform="translate(-0.7666 -2.46387)" fill="#ccc"/><path d="M48.99219,15.85254c.5841.407,1.65556-.65755,1.35547-1.26514l.30664-.15185c.49239.93974-.99888,2.37584-1.8667,1.67041Z" transform="translate(-0.7666 -2.46387)" fill="#ccc"/><path d="M53.44141,25.72363a.55674.55674,0,0,1,.00005-1.11328A.55674.55674,0,0,1,53.44141,25.72363Z" transform="translate(-0.7666 -2.46387)" fill="#ccc"/><path d="M53.44141,25.36914a.20276.20276,0,0,0,0-.40527A.20276.20276,0,0,0,53.44141,25.36914Z" transform="translate(-0.7666 -2.46387)" fill="#ccc"/><path d="M54.82227,24.4834a1.62536,1.62536,0,0,1-.92041-.22754c.97138-4.55787,7.47737.803,3.22168,2.58105a1.055,1.055,0,0,1-.46-.80957l.35791-.05078a.78312.78312,0,0,0,.17872.45606C60.257,24.79881,55.334,20.78621,54.311,24.05273a.76786.76786,0,0,0,.46.07618Z" transform="translate(-0.7666 -2.46387)" fill="#ccc"/><path d="M58.09521,22.43359c1.07075,1.88-1.21253,4.7952-3.45214,4.22657l-.15332-.127C53.58767,24.4714,56.073,21.78483,58.09521,22.43359Z" transform="translate(-0.7666 -2.46387)" fill="#ccc"/><polygon points="54.03 24.12 53.774 23.867 56.51 20.652 56.792 20.855 54.03 24.12" fill="#ccc"/><path d="M57.89062,22.68652c-1.73164-.2677-3.76853,1.82435-3.09374,3.64453A2.95053,2.95053,0,0,0,57.89062,22.68652Z" transform="translate(-0.7666 -2.46387)" fill="#ccc"/><path d="M56.33105,28.10254a.55673.55673,0,0,1,.00006-1.11328A.55673.55673,0,0,1,56.33105,28.10254Z" transform="translate(-0.7666 -2.46387)" fill="#ccc"/><path d="M62.49316,19.90234c-1.975,1.3979-5.76906.57312-6.648-1.873l.12793-.10108a3.07824,3.07824,0,0,0,1.38038.3794c-2.02921-2.04228-1.26292-4.83944.94628-6.58057l.15332.10156A6.46682,6.46682,0,0,0,62.44238,19.624Z" transform="translate(-0.7666 -2.46387)" fill="#ccc"/><path d="M56.33105,27.74805a.20225.20225,0,0,0,0-.4043A.20225.20225,0,0,0,56.33105,27.74805Z" transform="translate(-0.7666 -2.46387)" fill="#ccc"/><path d="M61.98193,19.82617A6.73441,6.73441,0,0,1,57.99316,12.436c-1.86819,1.79947-2.01438,4.34944.02539,6.0996l-.102.12647a3.94334,3.94334,0,0,1-1.40673-.12647A4.63923,4.63923,0,0,0,61.98193,19.82617Z" transform="translate(-0.7666 -2.46387)" fill="#ccc"/><path d="M59.73193,30.78613c1.95634,2.32938-.57258,5.9246-3.19629,4.04883l.0254-.15137a4.57167,4.57167,0,0,0,2.88964-3.84765Z" transform="translate(-0.7666 -2.46387)" fill="#ccc"/><path d="M59.75732,30.83594a2.92938,2.92938,0,0,1-2.86377,4.126l.07666-.30371a2.66329,2.66329,0,0,0,2.48047-3.74609Z" transform="translate(-0.7666 -2.46387)" fill="#ccc"/><path d="M59.68066,31.36816a4.39829,4.39829,0,0,1-2.63378,3.44141C59.22822,35.75263,60.85124,33.23335,59.68066,31.36816Z" transform="translate(-0.7666 -2.46387)" fill="#ccc"/><path d="M58.24854,12.46094c-2.10229,2.86145.509,7.53645,3.938,7.18847l.05127.3545c-3.74723.43141-6.56118-4.655-4.2959-7.74512Z" transform="translate(-0.7666 -2.46387)" fill="#ccc"/><path d="M66.43115,18.53564c-3.19251,1.0325-6.0375,2.08688-8.4126,4.25245l-.25585-.25391c2.41879-2.17713,5.34849-3.31829,8.5664-4.353Z" transform="translate(-0.7666 -2.46387)" fill="#ccc"/><path d="M65.86865,6.4375c6.1379-.42726,7.533,7.43466,2.90182,10.44053-4.78151,3.14586-12.88473,7.59856-8.69284,14.43978C66.12607,39.18532,77.59319,33.212,78.168,23.876l.35791.05078c-.12909,11.641-18.34148,16.45468-19.86953,3.66937-.17456-7.1225,8.54706-8.27226,11.80237-13.14818A4.96027,4.96027,0,0,0,65.86865,6.7915Z" transform="translate(-0.7666 -2.46387)" fill="#ccc"/><path d="M59.9873,23.85059a4.32774,4.32774,0,0,0,2.83838,3.84765l.02588.15137C60.25687,29.75929,57.74,26.1277,59.65527,23.7998Z" transform="translate(-0.7666 -2.46387)" fill="#ccc"/><path d="M59.73193,24.38184c-1.22831,1.84063.43625,4.39263,2.60791,3.44238A4.246,4.246,0,0,1,59.73193,24.38184Z" transform="translate(-0.7666 -2.46387)" fill="#ccc"/><path d="M59.91064,23.92676a2.68416,2.68416,0,0,0,2.50586,3.74609l.07666.30371a2.92362,2.92362,0,0,1-2.86377-4.126Z" transform="translate(-0.7666 -2.46387)" fill="#ccc"/><path d="M66.35449,6.7915a2.08438,2.08438,0,0,0-.84375,3.46778l-.05127.15185C64.37708,10.1143,63.2174,9.328,63.59277,8.1333a1.646,1.646,0,0,0-.58789.22754l-.15332-.10107a3.01139,3.01139,0,0,1,3.45166-1.772Z" transform="translate(-0.7666 -2.46387)" fill="#ccc"/><path d="M65.66406,6.7915A2.78439,2.78439,0,0,0,63.542,7.728a3.22512,3.22512,0,0,1,.51123-.15186l.10205.15186c-.59134.84453-.2047,1.54045.58838,2.0249A2.23708,2.23708,0,0,1,65.66406,6.7915Z" transform="translate(-0.7666 -2.46387)" fill="#ccc"/><path d="M63.59277,34.25293c1.68663-.172,2.68429-1.46186,2.02-3.01172l.10254-.15137c.88071.60341,1.78206,1.85183.94629,2.8086a1.63475,1.63475,0,0,0,.63916-.02539l.12793.15234c-.863,1.04066-2.54525.95375-3.86133.53125Z" transform="translate(-0.7666 -2.46387)" fill="#ccc"/><path d="M64.2832,34.45605a2.68425,2.68425,0,0,0,2.30127-.17773,3.94585,3.94585,0,0,1-.51123-.02539l-.05127-.20215a1.27192,1.27192,0,0,0,.12793-2.07519A2.332,2.332,0,0,1,64.2832,34.45605Z" transform="translate(-0.7666 -2.46387)" fill="#ccc"/><path d="M66.40576,35.0127a1.53432,1.53432,0,1,1,1.09961,2.85937l-.10254-.10059A2.85667,2.85667,0,0,0,66.40576,35.0127Z" transform="translate(-0.7666 -2.46387)" fill="#ccc"/><path d="M67.09619,35.26562A2.5221,2.5221,0,0,1,67.78662,37.29,1.1302,1.1302,0,0,0,67.09619,35.26562Z" transform="translate(-0.7666 -2.46387)" fill="#ccc"/><path d="M70.80371,9.12012a2.99116,2.99116,0,0,0-2.915.55713l-.12793-.05079A1.54288,1.54288,0,1,1,70.80371,9.12012Z" transform="translate(-0.7666 -2.46387)" fill="#ccc"/><path d="M70.29248,8.68994a1.20775,1.20775,0,0,0-2.19922.40479A3.10513,3.10513,0,0,1,70.29248,8.68994Z" transform="translate(-0.7666 -2.46387)" fill="#ccc"/><path d="M68.7583,34.86035c2.15312-2.58324,2.25174-4.91433.07666-7.49121l.07666-.17773c2.22865.43064,4.32882,1.78831,3.68213,4.35351h.02539a3.00583,3.00583,0,0,0,.94629-1.03808l.15332.02539c.46968,2.56-2.52952,4.69613-4.80713,4.45507Z" transform="translate(-0.7666 -2.46387)" fill="#ccc"/><path d="M69.52539,27.46973c3.26028,1.46011,2.71886,6.44833-.35791,7.56836l-.1792-.25391c2.79587-1.0668,3.40889-5.62466.38379-7.01074Z" transform="translate(-0.7666 -2.46387)" fill="#ccc"/><path d="M69.3208,34.709c1.78728-.17848,3.88173-1.41677,4.09131-3.3916a6.08572,6.08572,0,0,1-1.04834.78418c-.03918-.0026-.01275.02779-.05127.02539l-.12793-.07617c.567-2.39839-.48667-3.74663-2.68506-4.37793C71.346,30.17536,71.15263,32.22666,69.3208,34.709Z" transform="translate(-0.7666 -2.46387)" fill="#ccc"/><path d="M71.41748,12.10693c-.86616-1.99146,2.23079-3.0266,2.86377-1.03808l-.10205.10156A2.82183,2.82183,0,0,0,71.41748,12.10693Z" transform="translate(-0.7666 -2.46387)" fill="#ccc"/><path d="M71.59668,11.49951a2.64507,2.64507,0,0,1,2.14795-.73437A1.21669,1.21669,0,0,0,71.59668,11.49951Z" transform="translate(-0.7666 -2.46387)" fill="#ccc"/><path d="M74.05127,32.6582a1.53251,1.53251,0,1,1,2.88965,1.0127l-.12793.02539A2.93061,2.93061,0,0,0,74.05127,32.6582Z" transform="translate(-0.7666 -2.46387)" fill="#ccc"/><path d="M74.665,32.30469a2.87647,2.87647,0,0,1,2.04541.78418A1.16633,1.16633,0,0,0,74.665,32.30469Z" transform="translate(-0.7666 -2.46387)" fill="#ccc"/><path d="M78.4751,23.19238c-2.37025-.42812-2.95815-2.09739-2.53174-4.45459l.10254-.07568A3.86814,3.86814,0,0,1,78.88428,21.041a3.92526,3.92526,0,0,1,3.47754-1.29053l.07666.10107Q81.79907,23.7246,78.4751,23.19238Z" transform="translate(-0.7666 -2.46387)" fill="#ccc"/><path d="M78.52588,22.83789c2.10933.39031,3.10873-.69043,3.52881-2.7832a4.02927,4.02927,0,0,0-3.27295,1.543A3.92779,3.92779,0,0,0,76.27588,19.042C75.89976,21.11938,76.46816,22.42274,78.52588,22.83789Z" transform="translate(-0.7666 -2.46387)" fill="#ccc"/><path d="M77.5542,18.61133a.55674.55674,0,0,1,.00005-1.11328A.55674.55674,0,0,1,77.5542,18.61133Z" transform="translate(-0.7666 -2.46387)" fill="#ccc"/><path d="M77.5542,18.25732a.20275.20275,0,0,0,0-.40527A.20275.20275,0,0,0,77.5542,18.25732Z" transform="translate(-0.7666 -2.46387)" fill="#ccc"/><path d="M79.70215,23.1416c-.30982,1.41091-2.59589,1.03414-2.30127-.42969l.35791.05079a.80525.80525,0,0,0,1.58545.27832Z" transform="translate(-0.7666 -2.46387)" fill="#ccc"/><path d="M77.83545,26.12891a1.53541,1.53541,0,1,1,3.01758-.55762l-.10254.10156A2.99789,2.99789,0,0,0,77.83545,26.12891Z" transform="translate(-0.7666 -2.46387)" fill="#ccc"/><path d="M79.88135,20.35742a1.43354,1.43354,0,0,0-.61377-1.49267A1.444,1.444,0,0,0,78.168,20.08008l-.35791-.102c.47463-2.05914,2.713-1.65127,2.4292.43017Z" transform="translate(-0.7666 -2.46387)" fill="#ccc"/><path d="M78.19385,25.52148a2.72721,2.72721,0,0,1,2.17334-.3291A1.17589,1.17589,0,0,0,78.19385,25.52148Z" transform="translate(-0.7666 -2.46387)" fill="#ccc"/><polygon points="78.271 18.755 77.913 18.704 78.348 16.198 78.706 16.249 78.271 18.755" fill="#ccc"/><path d="M79.47217,18.23193a.557.557,0,0,1,0-1.11376A.557.557,0,0,1,79.47217,18.23193Z" transform="translate(-0.7666 -2.46387)" fill="#ccc"/><path d="M79.47217,17.87744a.2025.2025,0,0,0,0-.40478A.2025.2025,0,0,0,79.47217,17.87744Z" transform="translate(-0.7666 -2.46387)" fill="#ccc"/><path d="M81.15967,19.24414a.557.557,0,0,1,0-1.11377A.557.557,0,0,1,81.15967,19.24414Z" transform="translate(-0.7666 -2.46387)" fill="#ccc"/><path d="M81.15967,18.89014a.20276.20276,0,0,0,0-.40528A.20276.20276,0,0,0,81.15967,18.89014Z" transform="translate(-0.7666 -2.46387)" fill="#ccc"/><path d="M82.84717,26.96387c-1.87795-.01935-1.94135-3.64292,0-3.64452C84.78779,23.3213,84.7243,26.94468,82.84717,26.96387Z" transform="translate(-0.7666 -2.46387)" fill="#ccc"/><path d="M82.84717,26.60938c1.39369-.05722,1.48076-2.90574,0-2.93555C81.366,23.70379,81.45312,26.55205,82.84717,26.60938Z" transform="translate(-0.7666 -2.46387)" fill="#ccc"/><path d="M84.4834,17.57373c-3.20018-.02243-3.48862-4.65693-.53711-5.36572l.07715.10107A4.96237,4.96237,0,0,0,84.61133,17.27Z" transform="translate(-0.7666 -2.46387)" fill="#ccc"/><path d="M82.84717,25.57129c-1.15975-.02409-1.21911-2.25392,0-2.252C84.06578,23.31814,84.00635,25.54655,82.84717,25.57129Z" transform="translate(-0.7666 -2.46387)" fill="#ccc"/><path d="M84.30469,17.27a4.74922,4.74922,0,0,1-.793-4.55566A2.43711,2.43711,0,0,0,84.30469,17.27Z" transform="translate(-0.7666 -2.46387)" fill="#ccc"/><path d="M82.84717,25.21777c.69081-.04679.75-1.51979,0-1.54394C82.09663,23.6976,82.15586,25.17135,82.84717,25.21777Z" transform="translate(-0.7666 -2.46387)" fill="#ccc"/><path d="M84.40674,17.57373a3.16346,3.16346,0,0,1-.79248-5.18848l.20459.22754c-1.374,1.26977-1.09192,3.93776.71582,4.63184Z" transform="translate(-0.7666 -2.46387)" fill="#ccc"/><path d="M87.88428,26.68555l-.35791-.10157c-.04457-1.60032.23968-4.73526-.61381-5.97262-1.86509-2.76179-4.22905.348-3.88668,2.88473H82.668c-.39249-2.88919,2.42742-6.115,4.51354-3.1386C88.13817,21.6771,87.84423,24.96583,87.88428,26.68555Z" transform="translate(-0.7666 -2.46387)" fill="#ccc"/><path d="M93.35645,31.874C82.58034,27.24556,79.77152,5.72264,94.17513,4.994c2.2723.02668,5.02205.51294,5.57389,2.91131l-.35791.05078C86.68305-3.481,76.836,23.205,93.6377,31.62109Z" transform="translate(-0.7666 -2.46387)" fill="#ccc"/><path d="M89.62305,15.87793c.05506-4.79232-5.601-3.9593-4.98633.60742h-.35791c-.64318-5.06417,5.80005-5.84648,5.70215-.582Z" transform="translate(-0.7666 -2.46387)" fill="#ccc"/><path d="M87.88428,32.81055c-1.87755-.01908-1.94069-3.6431,0-3.64453C89.82552,29.16782,89.76189,32.79112,87.88428,32.81055Z" transform="translate(-0.7666 -2.46387)" fill="#ccc"/><path d="M87.88428,32.45605c1.394-.05734,1.48118-2.90562,0-2.93554C86.40352,29.55035,86.49058,32.39886,87.88428,32.45605Z" transform="translate(-0.7666 -2.46387)" fill="#ccc"/><path d="M90.416,19.19385c3.28816-1.00669,1.676-5.76085-.51172-2.68311H89.751c-2.19143-3.08034-3.7964,1.682-.51123,2.68311l-.15332.30371c-3.26539-.96968-2.422-6.14455.74121-3.645,3.16555-2.50111,4.00385,2.67825.7417,3.645Z" transform="translate(-0.7666 -2.46387)" fill="#ccc"/><path d="M87.88428,31.418c-1.15939-.02475-1.21882-2.25329,0-2.252C89.10312,29.16466,89.0437,31.3934,87.88428,31.418Z" transform="translate(-0.7666 -2.46387)" fill="#ccc"/><path d="M92.41016,9.04443c.38712-3.95962-4.56668-5.01377-4.96045-.86084L87.0918,8.1333C87.501,3.58323,93.18914,4.617,92.76855,9.019Z" transform="translate(-0.7666 -2.46387)" fill="#ccc"/><path d="M87.88428,31.06445c.69144-.04752.7504-1.52013,0-1.54394C87.13394,29.54484,87.193,31.01641,87.88428,31.06445Z" transform="translate(-0.7666 -2.46387)" fill="#ccc"/><path d="M101.35986,34.48047c-6.26283-4.82659-8.40926,6.404-13.96142,2.88574l.05127-.127c3.00858-.16918,3.24326-2.49312,4.66641-4.39085,2.54186-3.36566,7.70358-2.37923,9.47421,1.40452Z" transform="translate(-0.7666 -2.46387)" fill="#ccc"/><path d="M89.59766,20.05469c-.86887.70374-2.35874-.73016-1.8667-1.6709l.30664.15185c-.30043.6073.77115,1.67283,1.35547,1.26563Z" transform="translate(-0.7666 -2.46387)" fill="#ccc"/><path d="M92.92188,31.34277,92.564,31.292c1.03867-5.42067-3.94253-9.18024-4.50048-1.94922h-.35791C88.255,21.64975,94.07294,25.306,92.92188,31.34277Z" transform="translate(-0.7666 -2.46387)" fill="#ccc"/><path d="M101.33447,34.43066c-7.48081-7.02877-7.87967,4.60017-13.57812,3.01172l.07666-.22754c5.53815,1.0041,5.99668-10.20969,13.75732-2.9873Z" transform="translate(-0.7666 -2.46387)" fill="#ccc"/><path d="M100.8999,33.74707c-7.55334-7.93574-8.47854,3.1709-12.75976,3.66992C92.99548,39.4403,94.87225,30.09424,100.8999,33.74707Z" transform="translate(-0.7666 -2.46387)" fill="#ccc"/><path d="M89.82764,20.18066c-1.46644-.15455-.76142-2.30631,0-2.88525C90.58877,17.87279,91.2942,20.02756,89.82764,20.18066Z" transform="translate(-0.7666 -2.46387)" fill="#ccc"/><path d="M89.82764,19.82617c.91217-.14281.394-1.56227,0-2.02441C89.43457,18.26256,88.915,19.68446,89.82764,19.82617Z" transform="translate(-0.7666 -2.46387)" fill="#ccc"/><path d="M93.17725,12.33447c3.29-1.00546,1.675-5.761-.51123-2.68261H92.5127c-2.19034-3.08057-3.797,1.68168-.51172,2.68261l-.15332.30371c-3.26475-.9696-2.42136-6.14513.7417-3.64453,3.16531-2.50224,4.0038,2.67816.74169,3.64453Z" transform="translate(-0.7666 -2.46387)" fill="#ccc"/><path d="M90.26221,19.80127c.584.40719,1.6558-.65758,1.35547-1.26563l.30664-.15185c.49265.94015-.99832,2.37477-1.86621,1.6709Z" transform="translate(-0.7666 -2.46387)" fill="#ccc"/><path d="M92.35938,13.19531c-.86866.70535-2.35894-.73068-1.8667-1.6709l.30664.15186c-.30083.60827.771,1.67265,1.35547,1.26562Z" transform="translate(-0.7666 -2.46387)" fill="#ccc"/><path d="M92.58936,13.32178c-1.46625-.15468-.76153-2.30674,0-2.88526C93.35072,11.01366,94.05549,13.168,92.58936,13.32178Z" transform="translate(-0.7666 -2.46387)" fill="#ccc"/><path d="M92.58936,12.96729c.91231-.14368.39326-1.56224,0-2.02491C92.19665,11.40355,91.67642,12.82479,92.58936,12.96729Z" transform="translate(-0.7666 -2.46387)" fill="#ccc"/><path d="M93.02393,12.94189c.5844.407,1.65561-.65759,1.35546-1.26562l.30665-.15186c.4923.94017-.99831,2.37626-1.8667,1.6709Z" transform="translate(-0.7666 -2.46387)" fill="#ccc"/><path d="M100.10693,11.09424c3.28969-1.00543,1.67522-5.761-.51123-2.68262h-.15332c-2.19066-3.08038-3.797,1.68167-.51172,2.68262l-.15332.30371c-3.26506-.96925-2.42112-6.14494.7417-3.64453,3.16513-2.50223,4.004,2.67872.74121,3.64453Z" transform="translate(-0.7666 -2.46387)" fill="#ccc"/><path d="M105.24658,34.75977c-7.51795-1.29493-12.9978-16.1643-3.19637-17.187,2.05977-.05283,4.17852,1.10552,4.296,3.26605h-.35791c-6.67581-10.70473-15.43,8.46641-.63916,13.5664Z" transform="translate(-0.7666 -2.46387)" fill="#ccc"/><path d="M97.39648,33.24121a25.75513,25.75513,0,0,0,7.8501,1.16406v.3545a25.90061,25.90061,0,0,1-8.31006-1.291Z" transform="translate(-0.7666 -2.46387)" fill="#ccc"/><path d="M99.28857,11.95508c-.86788.70547-2.35886-.73118-1.86621-1.67041l.30664.15185c-.30133.60729.77149,1.67229,1.355,1.26514Z" transform="translate(-0.7666 -2.46387)" fill="#ccc"/><path d="M97.85693,5.70312a3.07991,3.07991,0,0,0,2.88916-.98681l.12793-.02539C101.51069,6.64128,98.56523,7.53489,97.85693,5.70312Z" transform="translate(-0.7666 -2.46387)" fill="#ccc"/><path d="M98.54736,6.083a1.30047,1.30047,0,0,0,2.09668-.78467A3.06186,3.06186,0,0,1,98.54736,6.083Z" transform="translate(-0.7666 -2.46387)" fill="#ccc"/><path d="M99.519,12.08154c-1.46665-.15431-.76129-2.30685,0-2.88525C100.28029,9.77347,100.98536,11.92749,99.519,12.08154Z" transform="translate(-0.7666 -2.46387)" fill="#ccc"/><path d="M100.69531,19.44678c.37791-2.19239-1.31512-3.93233-1.43213-1.0376l-.35791.12646c.02545-3.43248,2.63926-1.9868,2.14795.91114Z" transform="translate(-0.7666 -2.46387)" fill="#ccc"/><path d="M99.519,11.72705c.91248-.14367.393-1.56213,0-2.0249C99.1256,10.163,98.6062,11.58479,99.519,11.72705Z" transform="translate(-0.7666 -2.46387)" fill="#ccc"/><path d="M100.874,22.91406c-1.87742-.018-1.94057-3.64212,0-3.64452C102.81515,19.27184,102.75164,22.89582,100.874,22.91406Z" transform="translate(-0.7666 -2.46387)" fill="#ccc"/><path d="M99.95361,11.70166c.58411.407,1.65557-.65755,1.35547-1.26514l.30664-.15185c.49235.93961-.99864,2.37569-1.8667,1.67041Z" transform="translate(-0.7666 -2.46387)" fill="#ccc"/><path d="M100.874,22.55957c1.394-.05707,1.48125-2.9056,0-2.93554C99.3932,19.65389,99.48036,22.50265,100.874,22.55957Z" transform="translate(-0.7666 -2.46387)" fill="#ccc"/><path d="M100.874,21.52246c-1.15868-.02585-1.21941-2.25322,0-2.25292C102.09347,19.26922,102.03274,21.49678,100.874,21.52246Z" transform="translate(-0.7666 -2.46387)" fill="#ccc"/><path d="M100.874,21.168c.692-.04637.75011-1.52031,0-1.54394C100.12438,19.648,100.18247,21.12132,100.874,21.168Z" transform="translate(-0.7666 -2.46387)" fill="#ccc"/><path d="M103.17529,17.72559a2.98825,2.98825,0,0,0,2.22461-1.89844l.12793-.07569C106.74346,17.21154,104.44105,19.26486,103.17529,17.72559Z" transform="translate(-0.7666 -2.46387)" fill="#ccc"/><path d="M106.75537,24.00293c3.28843-1.00695,1.67552-5.76169-.51123-2.68359h-.15381c-2.19041-3.08041-3.79619,1.68153-.51123,2.68359l-.15332.30371c-3.26493-.97-2.42185-6.14422.74121-3.64551,3.16617-2.50021,4.00394,2.67849.7417,3.64551Z" transform="translate(-0.7666 -2.46387)" fill="#ccc"/><path d="M103.81494,17.852a1.28069,1.28069,0,0,0,1.6875-1.44238A2.8391,2.8391,0,0,1,103.81494,17.852Z" transform="translate(-0.7666 -2.46387)" fill="#ccc"/><path d="M105.937,24.86328c-.86818.705-2.359-.73061-1.8667-1.6709l.30713.15235c-.30141.60735.7704,1.67225,1.355,1.26562Z" transform="translate(-0.7666 -2.46387)" fill="#ccc"/><path d="M106.167,24.98926c-1.46607-.15427-.76167-2.30616,0-2.88477C106.92918,22.68175,107.63379,24.83636,106.167,24.98926Z" transform="translate(-0.7666 -2.46387)" fill="#ccc"/><path d="M106.167,24.63574c.91194-.14434.39424-1.56261,0-2.02539C105.7739,23.072,105.25457,24.49194,106.167,24.63574Z" transform="translate(-0.7666 -2.46387)" fill="#ccc"/><path d="M106.60205,24.61035c.58421.40666,1.65608-.658,1.355-1.26562l.30713-.15235c.49266.94023-.99917,2.376-1.8667,1.6709Z" transform="translate(-0.7666 -2.46387)" fill="#ccc"/><path d="M109.082,9.1709c.7501-1.46618,3.49677-1.09569,4.88379-1.0376a.97791.97791,0,1,1,1.61133,1.08789c.52512,1.23509,1.76762,3.67789.69043,4.88526a.81247.81247,0,0,1-.563-.27881.85337.85337,0,0,1-.46.481c-1.30641-.93584-1.11674-3.50842-.92041-5.01123-.81845.66138-5.70316,2.2858-4.75635.30371A1.98338,1.98338,0,0,1,109.082,9.1709Z" transform="translate(-0.7666 -2.46387)" fill="#ccc"/><path d="M109.49121,9.09473c.26358.28373.47828.28856.94629.3291a1.67,1.67,0,0,0-.76709.63281c1.2583.45929,3.44767-.45743,4.60254-1.11377a.98809.98809,0,0,1-.30713-.45557C112.55949,8.43189,110.598,8.17267,109.49121,9.09473Z" transform="translate(-0.7666 -2.46387)" fill="#ccc"/><path d="M111.35791,12.08154a1.37727,1.37727,0,0,1-1.20166.02539.98633.98633,0,0,1,.07666-.6582.8.8,0,0,1-.58838-.20264,1.29391,1.29391,0,0,1,.71582-1.063l.20459.30371a1.241,1.241,0,0,0-.53662.582A1.4441,1.4441,0,0,0,111,10.96777c-.27478.37977-.48072.53826-.51172.91114a1.50173,1.50173,0,0,0,.76709-.15186Z" transform="translate(-0.7666 -2.46387)" fill="#ccc"/><path d="M114.52832,28.43164a4.486,4.486,0,0,0-3.9375-3.18848l-.05127-.127c2.18191-2.23788,6.0465.48821,4.32129,3.31543Z" transform="translate(-0.7666 -2.46387)" fill="#ccc"/><path d="M113.83838,9.55029c-.87378.77024-2.4709,2.08149-2.73633,3.26514a2.12144,2.12144,0,0,0,1.17627-.60742,2.36491,2.36491,0,0,0-.1792,1.26562c.86308-.23316,1.88143-2.83057,2.14795-3.56884l.30713.10107c-.4832,1.14576-1.135,3.71621-2.65918,3.84717a1.06124,1.06124,0,0,1-.1792-.86035.93145.93145,0,0,1-.92041.10107c-.1615-1.40646,1.84686-2.92779,2.73584-3.74561Z" transform="translate(-0.7666 -2.46387)" fill="#ccc"/><path d="M114.52832,28.35547c.582-2.05376-1.658-3.73238-3.5542-3.1377l-.10205-.3291c2.10607-.68712,4.59323,1.21926,4.01465,3.49219Z" transform="translate(-0.7666 -2.46387)" fill="#ccc"/><path d="M114.70752,27.95117A2.37714,2.37714,0,0,0,111.23,25.01465,4.64509,4.64509,0,0,1,114.70752,27.95117Z" transform="translate(-0.7666 -2.46387)" fill="#ccc"/><path d="M113.12207,13.01807a1.74245,1.74245,0,0,0,.12793.75927,1.56023,1.56023,0,0,0,.665-.86084c.07163.47271.03633.732.25537,1.0127a.91847.91847,0,0,0,.35791-.68359l.3584.05078c-.04455.65106-.80518,1.50539-1.15088.582a1.22217,1.22217,0,0,1-.58789.30371,1.39726,1.39726,0,0,1-.38379-1.16406Z" transform="translate(-0.7666 -2.46387)" fill="#ccc"/><path d="M118.90088,36.126a3.97478,3.97478,0,0,0,3.42676-1.49317l.25537.27832c-4.74555,4.98018-11.45311-2.46933-7.56817-7.51681,3.15941-4.96655,10.61579-6.76418,13.743-11.75662,5.21479-8.31586-8.22771-14.13636-13.33448-7.55518l-.30664-.17725c3.22636-4.15052,11.06593-3.982,14.02588.37984,5.20669,9.8585-9.68469,12.91993-13.79593,19.27318C113.08442,30.66865,114.5958,36.21388,118.90088,36.126Z" transform="translate(-0.7666 -2.46387)" fill="#ccc"/><path d="M116.57422,6.918a1.56386,1.56386,0,0,1-1.96875-2.42969l.12744.05078A3.297,3.297,0,0,0,116.57422,6.918Z" transform="translate(-0.7666 -2.46387)" fill="#ccc"/><path d="M115.37256,22.50879c-.81522-.85943-1.82073-2.73838-1.07422-3.74561a1.12805,1.12805,0,0,1,.69043.25342.84119.84119,0,0,1,.38379-.63281c1.299.338,1.62681,2.381,1.55957,3.56836l-.35791-.05078c.0523-.91806-.14675-2.64264-1.125-3.1128q-.282.3545,0,1.44288-.53687-1.01221-.94629-1.08838c-.44472.926.44909,2.40676,1.125,3.11279Z" transform="translate(-0.7666 -2.46387)" fill="#ccc"/><path d="M114.273,8.33545a1.12323,1.12323,0,0,0,1.023.68359A.62286.62286,0,1,0,114.273,8.33545Z" transform="translate(-0.7666 -2.46387)" fill="#ccc"/><path d="M115.78174,35.13867c-2.78531-1.44229-1.165-6.71477,1.99414-6.27637l.05127.126A7.66346,7.66346,0,0,0,115.78174,35.13867Z" transform="translate(-0.7666 -2.46387)" fill="#ccc"/><path d="M116.063,6.918a2.69839,2.69839,0,0,1-1.53467-1.79688C113.92242,6.23324,115.06289,7.0984,116.063,6.918Z" transform="translate(-0.7666 -2.46387)" fill="#ccc"/><path d="M114.70752,9.24658c-.22716,1.33616-.33127,3.62844.53711,4.65723a2.45691,2.45691,0,0,0,.30664-.96192,1.4902,1.4902,0,0,0,.61377.78467c.57178-1.23925-.441-3.29733-.895-4.35351A2.224,2.224,0,0,1,114.70752,9.24658Z" transform="translate(-0.7666 -2.46387)" fill="#ccc"/><path d="M115.398,34.43066a7.15933,7.15933,0,0,1,1.94336-5.31543C115.08226,29.3685,113.78169,32.79282,115.398,34.43066Z" transform="translate(-0.7666 -2.46387)" fill="#ccc"/><path d="M115.42334,34.93652a4.31947,4.31947,0,0,1,2.19922-6.07422l.07666.25293c-2.00191.81539-3.24024,3.75988-1.96875,5.61915Z" transform="translate(-0.7666 -2.46387)" fill="#ccc"/><polygon points="115.45 19.438 115.117 19.539 114.171 16.958 114.529 16.856 115.45 19.438" fill="#ccc"/><path d="M116.01172,21.80078a.96818.96818,0,0,1,.92041.07617.873.873,0,1,1-1.63623.48047A1.3004,1.3004,0,0,1,116.01172,21.80078Z" transform="translate(-0.7666 -2.46387)" fill="#ccc"/><path d="M115.37256,26.8623a5.03316,5.03316,0,0,0,.895-3.87207l.35791-.05078a5.10849,5.10849,0,0,1-.99756,4.126Z" transform="translate(-0.7666 -2.46387)" fill="#ccc"/><path d="M116.11377,22.12988a.77862.77862,0,0,0-.40918.27832.49605.49605,0,1,0,.9209-.3291A1.39052,1.39052,0,0,0,116.11377,22.12988Z" transform="translate(-0.7666 -2.46387)" fill="#ccc"/><path d="M122.353,5.24756a6.28314,6.28314,0,0,0-1.22754,7.01123l-.07666.10107c-4.66093-.75584-3.33024-7.76279,1.17627-7.416Z" transform="translate(-0.7666 -2.46387)" fill="#ccc"/><path d="M121.86719,5.273c-3.56114.12855-4.88346,5.35745-1.25293,6.53027A6.35268,6.35268,0,0,1,121.86719,5.273Z" transform="translate(-0.7666 -2.46387)" fill="#ccc"/><path d="M122.30176,5.24756c-2.95324,1.19239-3.869,4.7235-1.30371,6.75781l-.23047.228c-2.79364-2.21362-1.79288-5.97768,1.35547-7.26416Z" transform="translate(-0.7666 -2.46387)" fill="#ccc"/><path d="M122.99219,35.08789a1.3668,1.3668,0,0,1,.00012-2.73339A1.3668,1.3668,0,0,1,122.99219,35.08789Z" transform="translate(-0.7666 -2.46387)" fill="#ccc"/><path d="M126.18848,18.53564a9.48949,9.48949,0,0,0-4.55127-9.4663l.05127-.12647c6.05084-2.08158,9.87941,6.18412,4.78222,9.77Z" transform="translate(-0.7666 -2.46387)" fill="#ccc"/><path d="M121.99512,8.89258a6.21885,6.21885,0,0,1,4.55176,9.74414l-.30665-.15186a5.9553,5.9553,0,0,0-4.373-9.314Z" transform="translate(-0.7666 -2.46387)" fill="#ccc"/><path d="M122.99219,34.73438a1.01285,1.01285,0,0,0-.00009-2.02538A1.01285,1.01285,0,0,0,122.99219,34.73438Z" transform="translate(-0.7666 -2.46387)" fill="#ccc"/><path d="M126.57227,18.18115c4.10661-3.41635,1.10884-10.25867-4.24463-9.061A9.69485,9.69485,0,0,1,126.57227,18.18115Z" transform="translate(-0.7666 -2.46387)" fill="#ccc"/><path d="M124.57764,5.52637c-1.89772.19059-2.55462-2.81887-.5625-3.0625l.07666.10107A3.16852,3.16852,0,0,0,124.57764,5.52637Z" transform="translate(-0.7666 -2.46387)" fill="#ccc"/><path d="M123.96387,5.0957a2.5975,2.5975,0,0,1-.30664-2.17627A1.26079,1.26079,0,0,0,123.96387,5.0957Z" transform="translate(-0.7666 -2.46387)" fill="#ccc"/><path d="M124.06641,21.31934c1.81219-.65318,3.02588,2.19268,1.17627,2.93652l-.10254-.07617A3.159,3.159,0,0,0,124.06641,21.31934Z" transform="translate(-0.7666 -2.46387)" fill="#ccc"/><path d="M124.75684,21.59766a2.95609,2.95609,0,0,1,.76709,2.07617A1.26385,1.26385,0,0,0,124.75684,21.59766Z" transform="translate(-0.7666 -2.46387)" fill="#ccc"/><path d="M126.3418,21.59766a.89508.89508,0,0,1,1.17578-.50586c1.07172-.67,2.627-2.16151,3.91211-1.59424a1.06323,1.06323,0,0,1-.127.53174.96967.96967,0,0,1,.53711.22754c-.43115,1.307-2.64352,1.72631-3.91211,1.89843.66092.6252,3.13393,4.10457,1.20118,3.7959a.83156.83156,0,0,1-.28125.50684c-1.422-.39207-1.67136-2.51767-1.89258-3.77149C126.44907,22.484,126.15276,22.10121,126.3418,21.59766Z" transform="translate(-0.7666 -2.46387)" fill="#ccc"/><path d="M126.69922,21.69922c-.14759.33649.019.5343.35937.6582a.98887.98887,0,0,0,.332-.93652C127.05882,21.36863,126.82516,21.38862,126.69922,21.69922Z" transform="translate(-0.7666 -2.46387)" fill="#ccc"/><path d="M127.26172,22.63574c.33007,1.4104.36905,2.66777,1.48437,3.417a1.82407,1.82407,0,0,0,.02539-.86035,1.7989,1.7989,0,0,0,.68946.53125c.02494-1.10865-1.12054-2.59589-1.89063-3.417A1.91289,1.91289,0,0,1,127.26172,22.63574Z" transform="translate(-0.7666 -2.46387)" fill="#ccc"/><path d="M127.543,17.169a4.81955,4.81955,0,0,0,3.37695-2.3794l.30664.15186a5.27555,5.27555,0,0,1-3.58008,2.58154Z" transform="translate(-0.7666 -2.46387)" fill="#ccc"/><path d="M127.74805,21.82617c1.14437-.08175,2.97985-.52948,3.68164-1.418a1.81574,1.81574,0,0,0-.89453.02539,2.31034,2.31034,0,0,0,.53711-.73388c-1.10057-.05046-2.55211,1.079-3.29883,1.67041A2.64946,2.64946,0,0,1,127.74805,21.82617Z" transform="translate(-0.7666 -2.46387)" fill="#ccc"/><path d="M128.25977,22.53418c.63077.392,2.23242,1.49878,3.16992,1.44336a1.52587,1.52587,0,0,0-.791-.81055,2.01945,2.01945,0,0,0,1.15039-.126,9.1479,9.1479,0,0,0-3.5039-.96192l.17968-.3291c1.00924.19728,3.20893.29317,3.707,1.3418-.06836.21875-.27344.35351-.61329.40429a.78221.78221,0,0,1,.25586.6836c-1.26474.41838-2.49187-.6091-3.75976-1.417Z" transform="translate(-0.7666 -2.46387)" fill="#ccc"/><path d="M129.666,24.88867a1.02776,1.02776,0,0,0,.5625.30371,2.91,2.91,0,0,0-.35743-.78515,1.97893,1.97893,0,0,0,.89453.22851,1.55706,1.55706,0,0,0-.25585-.53222l.30664-.20215a1.51305,1.51305,0,0,1,.332,1.01269,1.51,1.51,0,0,1-.58789.0752.88714.88714,0,0,1-.02539.48144c-.4407.18986-.75858-.01256-1.125-.3291Z" transform="translate(-0.7666 -2.46387)" fill="#ccc"/><path d="M131.48242,13.70117a1.11556,1.11556,0,0,1,.66406.63281.86659.86659,0,1,1-1.56054-.63281A1.64327,1.64327,0,0,1,131.48242,13.70117Z" transform="translate(-0.7666 -2.46387)" fill="#ccc"/><path d="M130.53516,13.87842c-.29458-.99278.98058-4.82186,1.96875-2.96143a.90973.90973,0,0,1,.6914-.22754c.7861,1.15488-.3343,2.92956-1.09961,3.72071l-.25586-.25342c.58409-.57169,1.62422-2.09509,1.15039-3.11279-.43185.16234-.62217.6258-.89453,1.11328a2.18583,2.18583,0,0,0-.05078-1.44239c-1.0347.42711-1.18117,2.27791-1.15039,3.1128Z" transform="translate(-0.7666 -2.46387)" fill="#ccc"/><path d="M131.37891,14.05566a.9677.9677,0,0,0-.53711-.05078.49283.49283,0,1,0,.92187.3291A.66251.66251,0,0,0,131.37891,14.05566Z" transform="translate(-0.7666 -2.46387)" fill="#ccc"/><path d="M130.99609,20.86426c.4475.01247.91336.05938,1.07422.45508a.94822.94822,0,0,1-.28125.37988,1.01557,1.01557,0,0,1,.35742.43066c-.1709.33755-.47138.43837-.89453.582l-.10351-.35449a1.24009,1.24009,0,0,0,.5625-.25293,1.91331,1.91331,0,0,0-.81641-.35449,2.07864,2.07864,0,0,0,.74024-.40527,1.25479,1.25479,0,0,0-.63868-.126Z" transform="translate(-0.7666 -2.46387)" fill="#ccc"/><polygon points="130.843 11.465 130.511 11.364 131.481 8.681 131.841 8.782 130.843 11.465" fill="#ccc"/><path d="M138.0791,30.55762c-.0456,2.02074-3.02467,2.03243-3.55469.29089.01893-1.54891-.80936-2.072-1.77685-2.98594-.98121-2.05869.81569-3.976,1.061-6.08718l.12793-.02539a11.55849,11.55849,0,0,0,4.09129,5.39112C140.69958,27.29055,140.58227,30.99814,138.0791,30.55762Z" transform="translate(-0.7666 -2.46387)" fill="#ccc"/><path d="M137.64453,30.02637a1.27625,1.27625,0,0,0,1.61032-1.97476,10.14336,10.14336,0,0,1-5.31833-5.31431c-.49075,2.04254-2.41115,4.59851.25595,5.89743.88457.55391.23479,1.98024.99707,2.63182C136.11762,32.38211,138.21811,31.57181,137.64453,30.02637Z" transform="translate(-0.7666 -2.46387)" fill="#ccc"/><path d="M142.86035,37.16406c-.55961-6.07658-10.27268-7.694-9.07715-14.9082l.28125-.02539c-.92819,7.21912,8.78139,8.76488,9.12891,14.98437Z" transform="translate(-0.7666 -2.46387)" fill="#ccc"/><path d="M135.2666,21.06641a.68348.68348,0,0,0-.00007-1.3667A.68348.68348,0,0,0,135.2666,21.06641Z" transform="translate(-0.7666 -2.46387)" fill="#ccc"/><path d="M135.2666,20.71191a.32872.32872,0,0,1,0-.65722A.32872.32872,0,0,1,135.2666,20.71191Z" transform="translate(-0.7666 -2.46387)" fill="#ccc"/><path d="M138.41113,23.21777c-1.67608-.37739-.61426-2.45732-1.32911-3.6445-1.60352-2.728,1.48054-4.02828,2.88966-5.79593l.12793.02539c.859,2.10725,3.21816,4.418.79155,6.42878C139.8161,21.11732,140.14847,23.41072,138.41113,23.21777Z" transform="translate(-0.7666 -2.46387)" fill="#ccc"/><path d="M138.38574,22.86328c.802-.46782.8957-2.15521,1.30469-3.189-1.25487.25534-3.2254-.69057-2.94141-2.20166l.3584.05029c-.271,1.40565,2.02279,2.27783,3.01758,1.59473l.10156.05078c-.5535,1.26-.63073,3.50159-1.73828,4.04931Z" transform="translate(-0.7666 -2.46387)" fill="#ccc"/><path d="M138.46289,22.86328c1.451.05917,1.10441-2.13981,2.173-2.85924,2.09587-1.78652.217-3.78936-.69055-5.64466-1.38022,1.5024-3.94709,2.67612-2.50547,5.113C138.17079,20.56209,137.09575,22.3729,138.46289,22.86328Z" transform="translate(-0.7666 -2.46387)" fill="#ccc"/><path d="M137.95117,27.31836a8.45159,8.45159,0,0,1,.25586-4.45508l.332.10156a8.22148,8.22148,0,0,0-.22949,4.35352Z" transform="translate(-0.7666 -2.46387)" fill="#ccc"/><path d="M138.41113,19.26953c.09053-2.26246,2.1043-1.96268,1.35547.228l-.35742-.05078c.47125-1.82679-.46372-1.84168-.665-.07617Z" transform="translate(-0.7666 -2.46387)" fill="#ccc"/><path d="M139.71582,29.84961c3.2157,2.23362,5.5258,7.39005,1.55957,10.07324l-.2041-.30371c3.77042-2.5536,1.41228-7.41066-1.61133-9.5166Z" transform="translate(-0.7666 -2.46387)" fill="#ccc"/><path d="M148.61426,18.58594c-4.2329,3.2079-10.308,7.24635-7.05762,13.08594l-.30664.126c-3.46753-6.05473,3.03969-10.36334,7.36426-13.69238Z" transform="translate(-0.7666 -2.46387)" fill="#ccc"/><path d="M140.63574,26.33105c3.43957-7.208,8.99585,2.24627,13.834-15.46435h.30664c-4.73265,17.89778-10.27518,8.66978-13.833,15.56592Z" transform="translate(-0.7666 -2.46387)" fill="#ccc"/><path d="M141.35254,39.59375c.23731-1.38721.271-1.80923-.61426-2.91113l.02539-.126C142.76986,36.06041,143.2318,39.2014,141.35254,39.59375Z" transform="translate(-0.7666 -2.46387)" fill="#ccc"/><path d="M141.78711,39.03711a1.25405,1.25405,0,0,0-.46094-2.15137A2.43019,2.43019,0,0,1,141.78711,39.03711Z" transform="translate(-0.7666 -2.46387)" fill="#ccc"/><path d="M142.88672,37.97363c-.58909-1.89225,2.355-3.06277,3.0166-1.11328l-.10156.0752A3.00656,3.00656,0,0,0,142.88672,37.97363Z" transform="translate(-0.7666 -2.46387)" fill="#ccc"/><path d="M143.19336,37.26465a2.49694,2.49694,0,0,1,2.12207-.708A1.27832,1.27832,0,0,0,143.19336,37.26465Z" transform="translate(-0.7666 -2.46387)" fill="#ccc"/><path d="M151.24805,12.00537c-2.5181.7252-3.29054-7.4157-5.54883-3.29h-.12793c-1.225-2.71452.7113-4.95082,3.32448-3.77132,1.25764-.27321,2.52908-.37545,2.99092,1.11379.41336.85717-.15251,1.77268-.17869,2.61946C151.75434,9.76689,152.69741,11.506,151.24805,12.00537Z" transform="translate(-0.7666 -2.46387)" fill="#ccc"/><path d="M151.14551,11.65137c1.19078-.48433.12415-2.164.19139-3.07519-.01135-.80252.54234-1.614.21779-2.41748-.40726-1.34326-1.56144-1.038-2.63382-.87284-1.95338-.8198-3.94751.1741-3.22165,2.61941C148.504,5.0123,148.82008,11.80556,151.14551,11.65137Z" transform="translate(-0.7666 -2.46387)" fill="#ccc"/><path d="M151.98926,7.12061c-.9068,2.70061-3.74226.02908-5.47168.53173l-.10254-.3291c1.62092-.65477,4.34581,2.09724,5.24219-.30371Z" transform="translate(-0.7666 -2.46387)" fill="#ccc"/><path d="M147.208,10.99316a.68347.68347,0,0,1,.00007-1.36669A.68347.68347,0,0,1,147.208,10.99316Z" transform="translate(-0.7666 -2.46387)" fill="#ccc"/><path d="M147.208,10.63867a.329.329,0,0,0,0-.65771A.329.329,0,0,0,147.208,10.63867Z" transform="translate(-0.7666 -2.46387)" fill="#ccc"/><path d="M150.37891,20.459c-3.57545.75655-1.88531-3.92939.4857-4.54236.76993-.535.78537-1.57769,1.278-2.36732.88873-1.347,2.034-1.43688,2.4551-3.23973h.12793c.85,2.26248,1.6902,4.79127-.53776,6.60579-.73064,1.16952.23477,2.45678-.30606,3.72135C153.48152,22.50342,150.46824,22.42777,150.37891,20.459Z" transform="translate(-0.7666 -2.46387)" fill="#ccc"/><path d="M150.76172,20.18066c-.24177,1.27474,1.34029,1.87867,2.23736,1.17673,1.09672-.86291.53118-2.48026.56333-3.63181,1.1505-2.75564,2.75928-3.132,1.06064-6.52978-.43728,1.29565-1.50531,1.46036-2.17386,2.53074-.45436.84079-.56585,1.94061-1.39364,2.50582a14.85642,14.85642,0,0,0-2.0067,1.42977c-.87141.99977-.14512,3.51136,1.43162,2.34178Z" transform="translate(-0.7666 -2.46387)" fill="#ccc"/><path d="M149.04883,8.00635c-.6234-1.93768,1.32541-1.51527,1.53418.127l-.3584.10108c-.209-1.08979-1.243-1.83373-.81738-.32911Z" transform="translate(-0.7666 -2.46387)" fill="#ccc"/><path d="M150.09766,16.51074a4.58592,4.58592,0,0,0,.94531-4.68213l.333-.10156a4.74451,4.74451,0,0,1-.86914,4.80908Z" transform="translate(-0.7666 -2.46387)" fill="#ccc"/><path d="M157.87012,9.47461c.39636,1.91669-2.78849,2.5527-3.11914.63281l.12695-.07617A3.16533,3.16533,0,0,0,157.87012,9.47461Z" transform="translate(-0.7666 -2.46387)" fill="#ccc"/><path d="M157.48633,10.10742a2.98477,2.98477,0,0,1-2.22461.354A1.29384,1.29384,0,0,0,157.48633,10.10742Z" transform="translate(-0.7666 -2.46387)" fill="#ccc"/><path d="M159.251,20.12988a2.59865,2.59865,0,0,1-2.76172-.20215V19.624a3.70694,3.70694,0,0,0,1.585-3.44238h.3584a4.08264,4.08264,0,0,1-1.50879,3.59424,2.18307,2.18307,0,0,0,2.17383.05029Z" transform="translate(-0.7666 -2.46387)" fill="#ccc"/><path d="M157.51172,14.562c-1.61222-.85332.97037-2.32136.99805-.50635l-.38379-.10107c-.05727-.87852-1.27508-.17024-.51172.25293Z" transform="translate(-0.7666 -2.46387)" fill="#ccc"/><path d="M168.48145,36.10059c-5.23363,1.03476-7.5898-5.11556-5.52224-9.14961,2.76041-5.4467,10.6462-7.98218,10.3296-15.02142C173.12625,2.46,155.71267,3.7222,157.666,13.39746l-.30762.30371C154.95712,3.39618,173.45149,1.817,173.64758,11.93c.35683,7.114-7.50565,9.69952-10.35686,15.148-1.95693,3.80829.19367,9.70967,5.19073,8.66813Z" transform="translate(-0.7666 -2.46387)" fill="#ccc"/><path d="M157.74219,13.853c1.25887-.50808,1.38149,1.35267,2.55664,1.56933l-.99707.30371-.07617.73389-.665-.3291-.76758.68359C158.24869,15.7792,156.68408,14.65913,157.74219,13.853Z" transform="translate(-0.7666 -2.46387)" fill="#ccc"/><path d="M157.89551,14.15674c-.58265.46866.31687,1.29709.23047,1.873l.38379-.30372.40918.17725.02539-.43018.46-.15185C158.8801,15.07326,158.62657,13.84443,157.89551,14.15674Z" transform="translate(-0.7666 -2.46387)" fill="#ccc"/><path d="M164.77441,35.44238c-4.07471.29953-7.58722-3.41764-5.9959-7.32739.78569-1.87092,2.94361-3.75723,1.62286-6.0105l.10254-.07617c5.80032,2.34711-3.08366,10.19508,4.34668,13.085Z" transform="translate(-0.7666 -2.46387)" fill="#ccc"/><path d="M159.12305,15.85254c2.63514,2.02414,4.48059.78149,2.76172,5.13769-4.75192-.86057-2.52953-1.57517-3.06836-4.93505Z" transform="translate(-0.7666 -2.46387)" fill="#ccc"/><path d="M163.98145,35.06348c-6.2962-3.44594,1.0435-9.76744-3.043-12.5293C162.22724,26.35179,153.5026,32.66814,163.98145,35.06348Z" transform="translate(-0.7666 -2.46387)" fill="#ccc"/><path d="M159.35352,16.61182c-.39166,2.59441-.91308,3.58128,2.25,3.89795C162.98469,17.63913,161.74189,17.57886,159.35352,16.61182Z" transform="translate(-0.7666 -2.46387)" fill="#ccc"/><path d="M162.26855,18.00391a2.09015,2.09015,0,0,0,1.04786-1.898,4.22977,4.22977,0,0,1-3.91211-.50635l.20508-.30371a3.61522,3.61522,0,0,0,3.78417.35449l.28125.15186a2.53192,2.53192,0,0,1-1.20214,2.50537Z" transform="translate(-0.7666 -2.46387)" fill="#ccc"/><path d="M164.4668,35.24023c-9.71016-2.4664-.60951-9.54253-3.75879-12.60449l.20508-.22754c3.56693,3.02911-5.7335,10.33721,3.60546,12.47754Z" transform="translate(-0.7666 -2.46387)" fill="#ccc"/><path d="M163.36816,5.273c-1.20616,1.52638-3.80269-.389-2.50586-1.94873l.15332.05078A3.05858,3.05858,0,0,0,163.36816,5.273Z" transform="translate(-0.7666 -2.46387)" fill="#ccc"/><path d="M163.6748,9.09473c-1.45191.2434-2.55872,1.05243-2.55761,2.40478a1.26852,1.26852,0,0,0,.30761-.07617l.05079.3291a1.31171,1.31171,0,0,1-.665.10108c-.426-1.6358,1.36068-2.87449,2.8125-3.1128Z" transform="translate(-0.7666 -2.46387)" fill="#ccc"/><path d="M162.626,5.39941A3.15153,3.15153,0,0,1,160.91309,3.957,1.306,1.306,0,0,0,162.626,5.39941Z" transform="translate(-0.7666 -2.46387)" fill="#ccc"/><path d="M164.05859,9.19629c-1.19913,1.05134-2.71381,1.68618-2.583,3.26465,1.56793-.11192,1.99859-1.78288,2.8125-3.0625l.30664.15185c-.8587,1.47628-1.48252,3.4651-3.40039,3.21436-.44825-1.89116,1.28357-2.6649,2.65918-3.87207Z" transform="translate(-0.7666 -2.46387)" fill="#ccc"/><path d="M164.7998,9.77832c.01325,1.41517-.96139,3.36836-2.60839,3.23975a3.49783,3.49783,0,0,1-.05079-.582h.35743v.22753c1.30052-.185,1.96293-1.69894,1.94336-2.88525Z" transform="translate(-0.7666 -2.46387)" fill="#ccc"/><path d="M165.3623,7.90527c.71674.89791-.57889,1.64933-.332,2.78418l-.8955-1.34131-1.4834-.63281C163.80585,8.72138,164.36217,7.35,165.3623,7.90527Z" transform="translate(-0.7666 -2.46387)" fill="#ccc"/><path d="M162.98438,26.96387a7.13965,7.13965,0,0,1,8.23339-1.69629l-.17871.2793a6.94392,6.94392,0,0,0-8.02929,1.87207Z" transform="translate(-0.7666 -2.46387)" fill="#ccc"/><path d="M165.10645,8.1582c-.47216-.26488-.93852.54035-1.40625.60742l.69042.27881.38379.63282C164.78548,9.20475,165.57224,8.58023,165.10645,8.1582Z" transform="translate(-0.7666 -2.46387)" fill="#ccc"/><path d="M164.62109,7.98145c.16536-1.71409,2.55064.16586.792.63232v-.354c.69483-.20225-.1656-1.06744-.43457-.37989Z" transform="translate(-0.7666 -2.46387)" fill="#ccc"/><path d="M171.93359,8.1333c-1.50573-1.84522-4.4783-1.36048-6.26464-.30371l-.17872-.30371c1.87589-1.19123,5.10131-1.56095,6.69922.37939Z" transform="translate(-0.7666 -2.46387)" fill="#ccc"/><path d="M168.2002,36.0752a1.57658,1.57658,0,0,1-1.1504-2.93555l.10254.07617A3.16686,3.16686,0,0,0,168.2002,36.0752Z" transform="translate(-0.7666 -2.46387)" fill="#ccc"/><path d="M167.50977,35.79688a3.04907,3.04907,0,0,1-.74122-2.0752A1.206,1.206,0,0,0,167.50977,35.79688Z" transform="translate(-0.7666 -2.46387)" fill="#ccc"/><path d="M173.33984,12.03076a4.70437,4.70437,0,0,0-5.01172-.73388l-.10156-.07618c.74655-3.09568,5.42866-2.51769,5.4209.75977Z" transform="translate(-0.7666 -2.46387)" fill="#ccc"/><path d="M173.31445,12.05615c-.56336-2.06336-3.3058-2.40421-4.67968-.96191l-.2295-.22754a3.12357,3.12357,0,0,1,5.24219,1.0376Z" transform="translate(-0.7666 -2.46387)" fill="#ccc"/><path d="M173.26367,11.5752a2.41978,2.41978,0,0,0-4.52637-.78467A4.69936,4.69936,0,0,1,173.26367,11.5752Z" transform="translate(-0.7666 -2.46387)" fill="#ccc"/><path d="M171.88281,26.35645a1.71974,1.71974,0,0,1-.84375.3291c-1.11905-.84421.38962-2.28706,1.22754-1.16407A.81418.81418,0,0,1,171.88281,26.35645Z" transform="translate(-0.7666 -2.46387)" fill="#ccc"/><path d="M171.959,7.77881c-1.89365-.35765-1.46757-3.41383.51172-3.13867l.02539.12695A3.36922,3.36922,0,0,0,171.959,7.77881Z" transform="translate(-0.7666 -2.46387)" fill="#ccc"/><path d="M171.29492,26.43262c.348,1.03453,1.008,2.31642,2.14746,2.53027q.15381-.3794-.46-1.36621a2.07921,2.07921,0,0,0,1.25293.73437c.01971-1.00063-1.32-2.15244-2.14844-2.53125l.12793-.3291c1.015.48472,2.64208,1.855,2.32715,3.11328a.86458.86458,0,0,1-.74121.0254.775.775,0,0,1-.12793.708c-1.44763.10671-2.32049-1.64167-2.73633-2.78418Z" transform="translate(-0.7666 -2.46387)" fill="#ccc"/><path d="M171.65234,26.07812a1.85187,1.85187,0,0,0,.30664-.37988c-.45855-.59163-1.32241.02364-.792.60742A.76915.76915,0,0,0,171.65234,26.07812Z" transform="translate(-0.7666 -2.46387)" fill="#ccc"/><path d="M171.52441,7.17139a3.15007,3.15007,0,0,1,.40918-2.17676A1.28291,1.28291,0,0,0,171.52441,7.17139Z" transform="translate(-0.7666 -2.46387)" fill="#ccc"/><polygon points="171.142 23.64 172.957 25.766 172.701 26.019 170.886 23.893 171.142 23.64" fill="#ccc"/><path d="M183.36328,21.11719c-2.58945,2.29024-1.40449,4.16948-5.54785,1.82226,1.51436-4.39619,2.13867-2.28082,5.44629-2.17675Z" transform="translate(-0.7666 -2.46387)" fill="#ccc"/><path d="M182.59668,21.19336c-2.42577-.74209-3.48235-1.50947-4.27051,1.54394C180.96022,24.57,181.19447,23.38258,182.59668,21.19336Z" transform="translate(-0.7666 -2.46387)" fill="#ccc"/><path d="M179.09375,20.50977a2.57951,2.57951,0,0,1,.71582-2.68311l.30664.05078c.41922,1.305,1.75473,1.91239,3.14551,2.15186l-.05176.35351a4.16023,4.16023,0,0,1-3.32422-2.10058,1.99782,1.99782,0,0,0-.43457,2.126Z" transform="translate(-0.7666 -2.46387)" fill="#ccc"/><path d="M180.7041,23.8252a2.12607,2.12607,0,0,0,1.6875,1.34179,4.11726,4.11726,0,0,1,1.17676-3.7207l.28125.22754a3.66082,3.66082,0,0,0-1.02246,3.64453l-.20508.22852a2.50016,2.50016,0,0,1-2.25-1.59473Z" transform="translate(-0.7666 -2.46387)" fill="#ccc"/><path d="M185.61426,20.10547c.29293,1.29924-1.577,1.14155-1.96973,2.22656l-.12695-1.01269-.74219-.15137.43457-.63281-.5625-.86084C183.71732,20.24413,184.95364,18.92625,185.61426,20.10547Z" transform="translate(-0.7666 -2.46387)" fill="#ccc"/><path d="M185.28125,20.23145c-.32229-.71936-1.34327.11839-1.8916-.05079l.25488.40528-.25488.3291.43457.126.05078.43066C184.17254,21.0493,185.5029,20.90746,185.28125,20.23145Z" transform="translate(-0.7666 -2.46387)" fill="#ccc"/><path d="M186.58594,12.66357a3.08516,3.08516,0,0,0-2.88965-.48095l-.12793-.07569C183.82863,10.24171,187.1528,10.77036,186.58594,12.66357Z" transform="translate(-0.7666 -2.46387)" fill="#ccc"/><path d="M186.30469,12.10693a1.29406,1.29406,0,0,0-2.22461-.35449A2.98746,2.98746,0,0,1,186.30469,12.10693Z" transform="translate(-0.7666 -2.46387)" fill="#ccc"/><path d="M184.94922,19.75049c1.16111-1.31377,2.14148,1.436.38379,1.0376l.15332-.32911c.80168.16282.45056-1.15211-.20508-.55664Z" transform="translate(-0.7666 -2.46387)" fill="#ccc"/><path d="M191.5459,21.37012a5.88764,5.88764,0,0,0-5.34375-1.21485l-.17871-.3291a6.12168,6.12168,0,0,1,5.67578,1.21485Z" transform="translate(-0.7666 -2.46387)" fill="#ccc"/><path d="M191.46973,35.74609c6.53749,1.13962,7.41061-7.747,3.47716-11.18648-6.82176-4.62733-14.47125-16.93677-1.78966-19.43852l.05078.3545c-12.4278,2.50263-4.43119,14.41492,2.03423,18.89274,4.13163,3.64136,3.03476,12.88561-3.77251,11.73226Z" transform="translate(-0.7666 -2.46387)" fill="#ccc"/><path d="M186.53418,10.28467a3.93978,3.93978,0,0,1,4.60254-2.05029l-.05078.35449A3.65853,3.65853,0,0,0,186.79,10.5376Z" transform="translate(-0.7666 -2.46387)" fill="#ccc"/><path d="M188.91211,19.82617a3.34039,3.34039,0,0,0-1.53418,2.63281l-.10156.0752C185.58888,21.46138,187.23728,18.96668,188.91211,19.82617Z" transform="translate(-0.7666 -2.46387)" fill="#ccc"/><path d="M188.19629,20.00391a1.28568,1.28568,0,0,0-1.09961,1.92285A3.231,3.231,0,0,1,188.19629,20.00391Z" transform="translate(-0.7666 -2.46387)" fill="#ccc"/><path d="M187.99219,7.77881a3.36937,3.36937,0,0,0-.53711-3.01172l.02539-.12695A1.59479,1.59479,0,0,1,187.99219,7.77881Z" transform="translate(-0.7666 -2.46387)" fill="#ccc"/><path d="M188.32422,17.97852c-1.75672-2.798,2.16366-5.652,4.2959-3.34082l-.05078.12646a4.57458,4.57458,0,0,0-3.96387,3.11328Z" transform="translate(-0.7666 -2.46387)" fill="#ccc"/><path d="M188.42676,7.17139a1.28278,1.28278,0,0,0-.40918-2.17676A3.155,3.155,0,0,1,188.42676,7.17139Z" transform="translate(-0.7666 -2.46387)" fill="#ccc"/><path d="M188.27344,17.90283c-.54744-2.23524,1.94758-4.216,4.04-3.49267l-.10254.30371c-1.89117-.57531-4.09768,1.13-3.58008,3.16357Z" transform="translate(-0.7666 -2.46387)" fill="#ccc"/><path d="M188.40137,17.523a4.74332,4.74332,0,0,1,3.55371-3.01172A2.45492,2.45492,0,0,0,188.40137,17.523Z" transform="translate(-0.7666 -2.46387)" fill="#ccc"/><path d="M191.03516,36.48047a.55673.55673,0,0,1,.00005-1.11328A.55673.55673,0,0,1,191.03516,36.48047Z" transform="translate(-0.7666 -2.46387)" fill="#ccc"/><path d="M191.67383,9.19629c-1.612.36885-.735-2.227.333-.96191l-.333.15185c-.45423-.50834-.875.57039-.15332.481Z" transform="translate(-0.7666 -2.46387)" fill="#ccc"/><path d="M191.03516,36.126a.20278.20278,0,0,0,0-.40528A.20278.20278,0,0,0,191.03516,36.126Z" transform="translate(-0.7666 -2.46387)" fill="#ccc"/><path d="M191.23926,36.0498a3.16748,3.16748,0,0,0,1.04883-2.85937l.10156-.07617A1.57657,1.57657,0,0,1,191.23926,36.0498Z" transform="translate(-0.7666 -2.46387)" fill="#ccc"/><path d="M191.39258,8.53809c.609-.88109,1.65281-.0787,2.63379-.60743l-.99707,1.21485-.02539,1.54394C192.5583,9.69807,191.24637,9.59966,191.39258,8.53809Z" transform="translate(-0.7666 -2.46387)" fill="#ccc"/><path d="M191.72559,8.66455c-.17972.4608.78788.695.94531,1.0376l.02637-.68311.40918-.50634C192.7513,8.6305,191.8638,8.25175,191.72559,8.66455Z" transform="translate(-0.7666 -2.46387)" fill="#ccc"/><path d="M191.92969,35.77148a1.20563,1.20563,0,0,0,.74121-2.07519A3.04607,3.04607,0,0,1,191.92969,35.77148Z" transform="translate(-0.7666 -2.46387)" fill="#ccc"/><path d="M196.12305,10.71484a1.4377,1.4377,0,0,1,.28125.55664c-1.37955.82827-2.95514-.14648-3.707-1.46777l.332-.15185c.47979.91885,1.81013,1.93163,2.915,1.46777a.26445.26445,0,0,0-.10254-.17725Z" transform="translate(-0.7666 -2.46387)" fill="#ccc"/><path d="M192.97852,9.272c1.22725.70942,2.38748,1.81669,3.68164,1.18946-.57651-1.32284-2.27131-1.1515-3.60547-1.44239l.02539-.35449c1.53628.27732,3.62594.18363,3.96387,1.92383-1.3696,1.14361-2.91695-.29705-4.2959-1.03809Z" transform="translate(-0.7666 -2.46387)" fill="#ccc"/><path d="M194.333,6.36133a1.36681,1.36681,0,0,1,.00012-2.73339A1.36681,1.36681,0,0,1,194.333,6.36133Z" transform="translate(-0.7666 -2.46387)" fill="#ccc"/><path d="M196.35352,9.55029h.07714c.033-.03739.06819-.01245.10157-.05029-.55595-1.0549-2.25317-1.1247-3.1709-.75928l-.15332-.3291c1.31741-.48732,3.29693-.2597,3.78515,1.24024a1.39432,1.39432,0,0,1-.5625.25293Z" transform="translate(-0.7666 -2.46387)" fill="#ccc"/><path d="M194.333,6.00684a1.01234,1.01234,0,0,0-.00009-2.0244A1.01234,1.01234,0,0,0,194.333,6.00684Z" transform="translate(-0.7666 -2.46387)" fill="#ccc"/><path d="M196.66016,33.418c1.07788-3.09755,5.75347-2.05623,5.37011,1.08789l-.12793.05078a4.66829,4.66829,0,0,0-4.96093-.9873Z" transform="translate(-0.7666 -2.46387)" fill="#ccc"/><path d="M196.71191,33.31641c1.32734-1.91508,4.47269-1.19547,5.293.81054l-.30761.126a2.8034,2.8034,0,0,0-4.73047-.68359Z" transform="translate(-0.7666 -2.46387)" fill="#ccc"/><path d="M197.17188,33.13965a4.74364,4.74364,0,0,1,4.52539.78418A2.4273,2.4273,0,0,0,197.17188,33.13965Z" transform="translate(-0.7666 -2.46387)" fill="#ccc"/><path d="M202.74609,27.36914a1.59989,1.59989,0,0,1-1.6875-1.01269c1.4369-.13,2.01112-1.673,3.34961-2.0752l.10157.35449c-1.09682.31733-1.81509,1.6514-2.88868,1.97364a1.27361,1.27361,0,0,0,1.07325.40527Z" transform="translate(-0.7666 -2.46387)" fill="#ccc"/><path d="M205.5332,25.64746c-1.66344-.595-2.69252,1.64392-3.52952,2.55641,1.22663-.427,3.66867.0437,3.96409-1.77125h.35743c-.12731,1.54045-1.97511,1.91424-3.22169,1.84751-.50829.21318-1.6117.6629-1.46975-.35452,1.1885-1.02274,2.09139-3.34837,4.05276-2.58186Z" transform="translate(-0.7666 -2.46387)" fill="#ccc"/><path d="M203.38477,28.2041a1.24916,1.24916,0,0,0-.17872,1.13867c.78691-.79249,2.30092-.71379,3.14551-1.49316l.25489.25293c-.935.87083-2.691.72973-3.45118,1.79687a1.51882,1.51882,0,0,1-.07715-1.89746Z" transform="translate(-0.7666 -2.46387)" fill="#ccc"/><path d="M207.19531,25.21777c1.54008,2.10239.317,1.92046-.40918,3.61914-.9468-.71021.04309-1.60647-.48633-2.27832a1.30446,1.30446,0,0,1-1.20117-.15136,1.25778,1.25778,0,0,1,.48535-1.08887c-.47567-.78715-1.54124-.382-1.84082-1.56934C205.35172,23.83012,206.40889,23.40053,207.19531,25.21777Z" transform="translate(-0.7666 -2.46387)" fill="#ccc"/><path d="M209.70117,19.624c-6.41026-.64977-7.55509-11.01059-.94629-12.377l.10254.10156a11.52556,11.52556,0,0,0,.99707,11.99707Z" transform="translate(-0.7666 -2.46387)" fill="#ccc"/><path d="M206.8877,25.41992c-.67511-1.29579-1.09193-1.50892-2.40332-1.26562.51988.5705,1.44772.29485,1.50878,1.34179a.85164.85164,0,0,0-.53711.708.876.876,0,0,0,.86915-.07519c.88453.447.27535,1.15926.40918,1.89746C207.77148,27.13974,207.76981,26.66591,206.8877,25.41992Z" transform="translate(-0.7666 -2.46387)" fill="#ccc"/><path d="M209.41992,19.24414a11.70078,11.70078,0,0,1-1.125-11.51611C202.73372,9.4907,203.92336,18.27515,209.41992,19.24414Z" transform="translate(-0.7666 -2.46387)" fill="#ccc"/><path d="M209.624,19.59863A7.43871,7.43871,0,0,1,208.39648,7.374l.28125.17676a7.13274,7.13274,0,0,0,1.125,11.74414Z" transform="translate(-0.7666 -2.46387)" fill="#ccc"/><path d="M206.45312,24.38184c1.15476-.876,2.41967,1.32658,1.07422,1.89843l-.15332-.30371c.88517-.35611.01286-1.885-.71582-1.291Z" transform="translate(-0.7666 -2.46387)" fill="#ccc"/><path d="M216.06836,28.91309c-1.54885-3.12961-4.9972-5.52063-8.33594-3.82227l-.1543-.30371c3.49746-1.79084,7.166.67379,8.79688,3.97363Z" transform="translate(-0.7666 -2.46387)" fill="#ccc"/><path d="M209.54785,36.20215c2.55595,3.11317,7.78763.37609,7.44018-3.49331-.11173-5.94139-6.43407-9.321-8.07966-14.71771-4.23689-9.15178,8.28708-15.934,14.42171-8.74455l-.28125.20264c-5.93988-6.83049-17.88126-.34966-13.79413,8.44143,1.69908,5.4191,8.03329,8.81171,8.09209,14.81828.33941,4.19961-5.33829,7.10157-8.10656,3.69537Z" transform="translate(-0.7666 -2.46387)" fill="#ccc"/><path d="M211.38867,17.87744c-1.62056-.38949-1.31335-1.54209-1.73926-2.75879a4.71751,4.71751,0,0,1,2.14844,1.67041,3.69062,3.69062,0,0,1,2.68457.12647C213.44822,17.59625,212.7619,18.52043,211.38867,17.87744Z" transform="translate(-0.7666 -2.46387)" fill="#ccc"/><path d="M211.49121,17.54834a1.71113,1.71113,0,0,0,2.17285-.53125,4.5125,4.5125,0,0,0-2.01953.17725,5.61924,5.61924,0,0,0-1.40625-1.41748A1.53957,1.53957,0,0,0,211.49121,17.54834Z" transform="translate(-0.7666 -2.46387)" fill="#ccc"/><path d="M210.26367,15.67529c.10482-1.20627,1.35311-1.58943,1.25293-2.85986,1.65631.6657,1.30433,2.26377.99707,4.0498l-.3584-.05078c.22985-1.38389.58229-2.6535-.332-3.46728-.08595.97012-1.141,1.39712-1.20215,2.3789Z" transform="translate(-0.7666 -2.46387)" fill="#ccc"/><path d="M212.25781,17.95361c-.27821,1.20024-2.18955.57523-1.55957-.55713l.30664.15186c-.35969.64479.77669,1.053.89551.30371Z" transform="translate(-0.7666 -2.46387)" fill="#ccc"/><path d="M211.41406,22.50879a4.41629,4.41629,0,0,1-.332-4.25147l.332.07569a4.14457,4.14457,0,0,0,.25586,3.94824Z" transform="translate(-0.7666 -2.46387)" fill="#ccc"/><path d="M210.77441,8.23438c2.089-2.4809,6.07539.00782,4.6543,2.88525h-.12793a4.74773,4.74773,0,0,0-4.37207-2.63233Z" transform="translate(-0.7666 -2.46387)" fill="#ccc"/><path d="M211.542,8.209a4.56485,4.56485,0,0,1,3.47754,1.84766A2.80415,2.80415,0,0,0,211.542,8.209Z" transform="translate(-0.7666 -2.46387)" fill="#ccc"/><path d="M212.59082,31.06445c5.25384.49959,3.80129,7.78718-.63965,6.63086l-.05078-.15234c2.37392-1.59269,2.48678-4.13883.63867-6.35254Z" transform="translate(-0.7666 -2.46387)" fill="#ccc"/><path d="M213.05078,31.2666c3.2673,1.521,2.50236,6.38384-1.04883,6.55567v-.32911a3.09246,3.09246,0,0,0,.84375-5.94824Z" transform="translate(-0.7666 -2.46387)" fill="#ccc"/><path d="M212.0791,7.77881a3.11265,3.11265,0,0,1,3.27246,2.15137A2.31181,2.31181,0,0,0,212.0791,7.77881Z" transform="translate(-0.7666 -2.46387)" fill="#ccc"/><path d="M213.38281,16.71338c.51067-.78933.07862-1.80569.63965-2.58154a1.48217,1.48217,0,0,0-1.33008.65771l-.25586-.25293a1.68531,1.68531,0,0,1,2.14844-.55713c-.90838.822-.22009,2.00626-.89551,2.936Z" transform="translate(-0.7666 -2.46387)" fill="#ccc"/><path d="M213.35742,31.69727c1.29724,2.06378,1.0912,4.31217-.81836,5.7705C215.80938,37.84649,217.08241,32.49,213.35742,31.69727Z" transform="translate(-0.7666 -2.46387)" fill="#ccc"/><path d="M213.17871,13.57471a.557.557,0,0,1,.00006-1.11377A.557.557,0,0,1,213.17871,13.57471Z" transform="translate(-0.7666 -2.46387)" fill="#ccc"/><path d="M213.17871,13.22021a.20252.20252,0,0,0,0-.40478A.20252.20252,0,0,0,213.17871,13.22021Z" transform="translate(-0.7666 -2.46387)" fill="#ccc"/><path d="M214.02246,6.76611a2.903,2.903,0,0,0,.48535-2.96093l.10254-.10157A1.56075,1.56075,0,1,1,214.02246,6.76611Z" transform="translate(-0.7666 -2.46387)" fill="#ccc"/><path d="M214.63574,6.4624a1.21856,1.21856,0,0,0,.38379-2.227A3.08342,3.08342,0,0,1,214.63574,6.4624Z" transform="translate(-0.7666 -2.46387)" fill="#ccc"/><path d="M216.65625,29.74805a1.56362,1.56362,0,1,1,1.96875-2.42969v.15137C217.38743,28.00592,217.18722,28.48006,216.65625,29.74805Z" transform="translate(-0.7666 -2.46387)" fill="#ccc"/><path d="M216.52832,29.08984a3.23194,3.23194,0,0,1,1.4834-1.7207A1.22859,1.22859,0,0,0,216.52832,29.08984Z" transform="translate(-0.7666 -2.46387)" fill="#ccc"/><path d="M216.52832,35.36719a1.57287,1.57287,0,1,1,3.14551,0l-.12793.07519A3.09024,3.09024,0,0,0,216.52832,35.36719Z" transform="translate(-0.7666 -2.46387)" fill="#ccc"/><path d="M216.9375,34.86035a3.22241,3.22241,0,0,1,2.25.02539A1.207,1.207,0,0,0,216.9375,34.86035Z" transform="translate(-0.7666 -2.46387)" fill="#ccc"/><path d="M217.88379,6.51318a1.57221,1.57221,0,1,1,.58789,3.08789l-.10254-.12646C218.76813,8.20167,218.54876,7.70616,217.88379,6.51318Z" transform="translate(-0.7666 -2.46387)" fill="#ccc"/><path d="M218.49707,6.86768a2.854,2.854,0,0,1,.3584,2.20166A1.198,1.198,0,0,0,218.49707,6.86768Z" transform="translate(-0.7666 -2.46387)" fill="#ccc"/><path d="M220.51758,7.42432c1.17473-.6796,1.61382-1.03227,1.8916-2.32862l.15332-.05029A1.56921,1.56921,0,1,1,220.51758,7.42432Z" transform="translate(-0.7666 -2.46387)" fill="#ccc"/><path d="M221.18164,7.44971a1.22757,1.22757,0,0,0,1.458-1.74659A3.17518,3.17518,0,0,1,221.18164,7.44971Z" transform="translate(-0.7666 -2.46387)" fill="#ccc"/><path d="M223.53418,9.981c2.18564-1.59067,2.24574-.40795,4.06641.43017-.78459,1.04385-1.74341-.0547-2.583.53125a1.48806,1.48806,0,0,1-.15332,1.291,1.49667,1.49667,0,0,1-1.22754-.53174c-.93893.44357-.48721,1.67215-1.76465,1.99951C221.95009,11.85671,221.34576,10.84074,223.53418,9.981Z" transform="translate(-0.7666 -2.46387)" fill="#ccc"/><path d="M223.73926,10.28467c-1.57056.77334-1.79238,1.19444-1.43164,2.7334.583-.64754.35768-1.59511,1.48242-1.72119a1.01958,1.01958,0,0,0,.86914.582.9984.9984,0,0,0-.07617-1.01221c.63366-.91627,1.36316-.1946,2.22461-.37988C225.691,9.36968,225.20556,9.27776,223.73926,10.28467Z" transform="translate(-0.7666 -2.46387)" fill="#ccc"/><path d="M222.61426,10.74023c-.89144-1.23445,1.4512-2.60206,2.07129-1.18994l-.30762.20264c-.414-1.01761-2.1324-.08279-1.457.83545Z" transform="translate(-0.7666 -2.46387)" fill="#ccc"/><path d="M225.91211,14.84033a1.77616,1.77616,0,0,1-1.07324,1.84766c-.16117-1.496-1.98214-2.26854-2.35254-3.64453l.332-.10157c.38329,1.18511,1.8753,2.01051,2.25,3.189a1.41837,1.41837,0,0,0,.48633-1.23975Z" transform="translate(-0.7666 -2.46387)" fill="#ccc"/><path d="M223.99512,11.75244c-.61569,1.91014,1.79718,3.01094,2.88846,3.92309-.3139-1.392-.01449-4.013-1.99393-4.37865l.05078-.3545c1.67651.18227,2.05312,2.15849,2.00764,3.53078.06314.43176.72742,1.17815.09,1.50584-.61629.40677-1.01428-.58745-1.292-.8604-1.26525-.5916-2.70634-1.99763-2.0586-3.518Z" transform="translate(-0.7666 -2.46387)" fill="#ccc"/><path d="M226.833,14.15674a1.5611,1.5611,0,0,0,1.33008.20264c-.87191-.93012-.8376-2.588-1.6875-3.49268l.25488-.25342c1.0452,1.02656.80455,2.94606,2.0459,3.82227a1.8579,1.8579,0,0,1-2.14746.0249Z" transform="translate(-0.7666 -2.46387)" fill="#ccc"/><path d="M20.2002,12.9165H16.74805c-1.522,3.08936-5.27533,15.48291-8.05469,17.59034v.127h4.4751v-.127c-1.53192-1.55372-1.25843-3.74152-.25586-5.56739h6.52051c.85583,1.73633,1.61633,3.94129.25585,5.56739v.127H27.999v-.127C25.48633,28.12042,21.73846,16.11035,20.2002,12.9165ZM13.16846,24.17969l2.9917-7.64356,3.01709,7.64356Z" transform="translate(-0.7666 -2.46387)"/><path d="M45.208,31.01367c-11.39626.49678-5.26685-11.97756-8.43848-17.97021v-.127H43.9292v.127c-1.822,2.21151-.74874,9.07728-1.02326,11.76911C42.4083,29.062,47.553,30.9614,50.24545,28.2929c1.80718-2.04941,1.799-13.31689-.56283-15.22454V12.9165h4.21924v.15186C49.42329,18.42685,56.55407,31.72044,45.208,31.01367Z" transform="translate(-0.7666 -2.46387)"/><path d="M62.31445,30.50684c1.60677-1.98353,1.61452-15.453,0-17.46338v-.127h7.15967v.127c-1.60656,1.98252-1.61472,15.45438,0,17.46338v.127H62.31445Z" transform="translate(-0.7666 -2.46387)"/><path d="M77.938,30.88672c-4.7997.50507-6.786-4.88489-8.9751-8.14942v-.127c1.03775-2.16066,7.51732-7.05237,4.96045-9.56689v-.127h5.52344v.127c-2.87319,1.00768-4.89372,3.71087-6.7251,6.07422,1.70311,1.98067,5.6496,10.19451,8.25928,10.8833v.25293A6.79264,6.79264,0,0,1,77.938,30.88672Z" transform="translate(-0.7666 -2.46387)"/><path d="M102.48486,31.01367C85.9262,29.44519,95.18148,6.399,109.21,13.67578v5.4419h-.25537c-2.05011-7.20359-11.15371-8.07535-10.86777.63347-.67044,6.37924,8.45309,10.882,11.7623,4.55549h.25586A7.46171,7.46171,0,0,1,102.48486,31.01367Z" transform="translate(-0.7666 -2.46387)"/><path d="M117.69922,30.50684c1.60681-1.98113,1.61457-15.45539,0-17.46338v-.127h7.15967v.127c-1.60592,1.98213-1.61407,15.45476,0,17.46338v.127h-7.15967Z" transform="translate(-0.7666 -2.46387)"/><path d="M121.63721,21.69922a8.60364,8.60364,0,0,1,5.01123-.20215l-.10156.35449a7.84992,7.84992,0,0,0-4.78174.17676Z" transform="translate(-0.7666 -2.46387)"/><path d="M139.48535,35.44238c3.079-1.00951,3.20835-3.408,3.32431-6.58-.34862-2.91314.93382-13.46266-1.02255-15.8189v-.127h7.15918v.127c-3.64075,6.87526,4.13794,24.13679-9.46094,22.65283Z" transform="translate(-0.7666 -2.46387)"/><path d="M163.9043,30.50684c1.60742-1.98091,1.61519-15.45562,0-17.46338v-.127H177.585l.74121,5.56836h-.25586c-1.29556-3.5142-4.294-5.08369-8.02832-4.80908v7.71973c2.48348.21452,4.56038-.61658,5.24121-3.16358h.25586v7.08643h-.25586c-.67989-2.54716-2.75853-3.37773-5.24121-3.16309V29.874c3.85664.33294,7.20975-1.06455,8.54-4.80859h.25586l-.74121,5.56836H163.9043Z" transform="translate(-0.7666 -2.46387)"/><path d="M202.08105,23.41992h-3.32421V12.9165h-3.32422L187.25,23.54688V26.584h6.39258a6.13864,6.13864,0,0,1-1.02246,3.92286v.127h7.16015v-.127a6.14447,6.14447,0,0,1-1.02343-3.92286h2.30175Zm-8.43847,0h-5.31836l5.31836-6.88379Z" transform="translate(-0.7666 -2.46387)" fill="#8c0000"/><path d="M220.49121,12.9165H217.04c-1.522,3.08887-5.27686,15.48273-8.05469,17.59034v.127H213.46v-.127c-1.53168-1.55347-1.259-3.74183-.25586-5.56739h6.52051c.85614,1.7359,1.6167,3.94165.25586,5.56739v.127H228.291v-.127C225.778,28.12042,222.02954,16.11053,220.49121,12.9165ZM213.46,24.17969l2.99121-7.64356,3.01758,7.64356Z" transform="translate(-0.7666 -2.46387)" fill="#8c0000"/></svg>